Bodoni-96-Medium.ufo
<glyph name="exclam" format="2">
  <advance width="1419"/>
  <unicode hex="0021"/>
  <outline>
    <contour>
      <point x="1007.5" y="2659" type="curve" smooth="yes"/>
      <point x="961.5" y="2000"/>
      <point x="710" y="1517.5"/>
      <point x="710" y="954.5" type="curve"/>
      <point x="701.5" y="954.5" type="line"/>
      <point x="701.5" y="1517.5"/>
      <point x="448.5" y="2000"/>
      <point x="402.5" y="2659" type="curve" smooth="yes"/>
      <point x="401.5" y="2687"/>
      <point x="402.5" y="2713"/>
      <point x="402.5" y="2737" type="curve" smooth="yes"/>
      <point x="402.5" y="2945.5"/>
      <point x="483" y="3104"/>
      <point x="706" y="3104" type="curve" smooth="yes"/>
      <point x="929" y="3104"/>
      <point x="1013" y="2945.5"/>
      <point x="1013" y="2737" type="curve" smooth="yes"/>
      <point x="1013" y="2713"/>
      <point x="1008.5" y="2687"/>
    </contour>
    <component base="period" xOffset="238.5"/>
  </outline>
</glyph>
<glyph name="numbersign" format="2">
  <advance width="5040"/>
  <unicode hex="0023"/>
  <outline>
    <contour>
      <point x="240" y="2000" type="line"/>
      <point x="4560" y="2000" type="line"/>
      <point x="4560" y="1984" type="line"/>
      <point x="240" y="1984" type="line"/>
    </contour>
    <contour>
      <point x="480" y="4136" type="line"/>
      <point x="4800" y="4136" type="line"/>
      <point x="4800" y="4120" type="line"/>
      <point x="480" y="4120" type="line"/>
    </contour>
    <contour>
      <point x="3624" y="6032" type="line"/>
      <point x="3640" y="6040" type="line"/>
      <point x="2840" y="-40" type="line"/>
      <point x="2824" y="-48" type="line"/>
    </contour>
    <contour>
      <point x="2120" y="6040" type="line"/>
      <point x="2136" y="6040" type="line"/>
      <point x="1336" y="-40" type="line"/>
      <point x="1320" y="-40" type="line"/>
    </contour>
  </outline>
</glyph>
<glyph name="dollar" format="2">
  <advance width="4568"/>
  <unicode hex="0024"/>
  <outline>
    <contour>
      <point x="2560" y="6640" type="line"/>
      <point x="2576" y="6640" type="line"/>
      <point x="2576" y="-640" type="line"/>
      <point x="2560" y="-640" type="line"/>
    </contour>
    <contour>
      <point x="1888" y="6640" type="line"/>
      <point x="1904" y="6640" type="line"/>
      <point x="1904" y="-640" type="line"/>
      <point x="1888" y="-640" type="line"/>
    </contour>
    <contour>
      <point x="4040" y="4904" type="curve"/>
      <point x="3984" y="5544"/>
      <point x="3288" y="6056"/>
      <point x="2424" y="6056" type="curve" smooth="yes"/>
      <point x="1640" y="6056"/>
      <point x="1136" y="5536"/>
      <point x="1136" y="4920" type="curve" smooth="yes"/>
      <point x="1136" y="3456"/>
      <point x="4248" y="3920"/>
      <point x="4248" y="1712" type="curve" smooth="yes"/>
      <point x="4248" y="592"/>
      <point x="3440" y="-120"/>
      <point x="2264" y="-120" type="curve" smooth="yes"/>
      <point x="824" y="-120"/>
      <point x="232" y="640"/>
      <point x="232" y="1192" type="curve" smooth="yes"/>
      <point x="232" y="1592"/>
      <point x="464" y="1896"/>
      <point x="848" y="1896" type="curve" smooth="yes"/>
      <point x="1120" y="1896"/>
      <point x="1408" y="1688"/>
      <point x="1408" y="1304" type="curve" smooth="yes"/>
      <point x="1408" y="952"/>
      <point x="1104" y="752"/>
      <point x="816" y="752" type="curve" smooth="yes"/>
      <point x="552" y="752"/>
      <point x="336" y="920"/>
      <point x="256" y="1096" type="curve"/>
      <point x="312" y="624"/>
      <point x="856" y="-104"/>
      <point x="2248" y="-104" type="curve" smooth="yes"/>
      <point x="3096" y="-104"/>
      <point x="3576" y="480"/>
      <point x="3576" y="1240" type="curve" smooth="yes"/>
      <point x="3576" y="2864"/>
      <point x="464" y="2312"/>
      <point x="464" y="4488" type="curve" smooth="yes"/>
      <point x="464" y="5464"/>
      <point x="1424" y="6080"/>
      <point x="2392" y="6080" type="curve" smooth="yes"/>
      <point x="3336" y="6080"/>
      <point x="4056" y="5520"/>
      <point x="4056" y="4840" type="curve" smooth="yes"/>
      <point x="4056" y="4440"/>
      <point x="3832" y="4152"/>
      <point x="3448" y="4152" type="curve" smooth="yes"/>
      <point x="3176" y="4152"/>
      <point x="2888" y="4344"/>
      <point x="2888" y="4720" type="curve" smooth="yes"/>
      <point x="2888" y="5064"/>
      <point x="3176" y="5280"/>
      <point x="3464" y="5280" type="curve" smooth="yes"/>
      <point x="3728" y="5280"/>
      <point x="3960" y="5104"/>
    </contour>
  </outline>
</glyph>
<glyph name="percent" format="2">
  <advance width="8064"/>
  <unicode hex="0025"/>
  <outline>
    <contour>
      <point x="5480" y="1680" type="curve" smooth="yes"/>
      <point x="5480" y="752"/>
      <point x="5608" y="-64"/>
      <point x="6120" y="-64" type="curve" smooth="yes"/>
      <point x="6632" y="-64"/>
      <point x="6760" y="752"/>
      <point x="6760" y="1680" type="curve" smooth="yes"/>
      <point x="6760" y="2608"/>
      <point x="6632" y="3424"/>
      <point x="6120" y="3424" type="curve" smooth="yes"/>
      <point x="5608" y="3424"/>
      <point x="5480" y="2608"/>
    </contour>
    <contour>
      <point x="4456" y="1680" type="curve" smooth="yes"/>
      <point x="4456" y="2824"/>
      <point x="5216" y="3440"/>
      <point x="6120" y="3440" type="curve" smooth="yes"/>
      <point x="7024" y="3440"/>
      <point x="7784" y="2824"/>
      <point x="7784" y="1680" type="curve" smooth="yes"/>
      <point x="7784" y="536"/>
      <point x="6864" y="-80"/>
      <point x="6120" y="-80" type="curve" smooth="yes"/>
      <point x="5216" y="-80"/>
      <point x="4456" y="536"/>
    </contour>
    <contour>
      <point x="6128" y="6000" type="line"/>
      <point x="6152" y="6000" type="line"/>
      <point x="1936" y="0" type="line"/>
      <point x="1912" y="0" type="line"/>
    </contour>
    <contour>
      <point x="1304" y="4320" type="curve" smooth="yes"/>
      <point x="1304" y="3392"/>
      <point x="1432" y="2576"/>
      <point x="1944" y="2576" type="curve" smooth="yes"/>
      <point x="2456" y="2576"/>
      <point x="2584" y="3392"/>
      <point x="2584" y="4320" type="curve" smooth="yes"/>
      <point x="2584" y="5248"/>
      <point x="2456" y="6064"/>
      <point x="1944" y="6064" type="curve" smooth="yes"/>
      <point x="1432" y="6064"/>
      <point x="1304" y="5248"/>
    </contour>
    <contour>
      <point x="280" y="4320" type="curve" smooth="yes"/>
      <point x="280" y="5464"/>
      <point x="1040" y="6080"/>
      <point x="1944" y="6080" type="curve" smooth="yes"/>
      <point x="2848" y="6080"/>
      <point x="3608" y="5464"/>
      <point x="3608" y="4320" type="curve" smooth="yes"/>
      <point x="3608" y="3176"/>
      <point x="2688" y="2560"/>
      <point x="1944" y="2560" type="curve" smooth="yes"/>
      <point x="1040" y="2560"/>
      <point x="280" y="3176"/>
    </contour>
  </outline>
</glyph>
<glyph name="ampersand" format="2">
  <advance width="826"/>
  <unicode hex="0026"/>
  <outline>
    <contour>
      <point x="560" y="460" type="line"/>
      <point x="800" y="460" type="line"/>
      <point x="800" y="458" type="line"/>
      <point x="560" y="458" type="line"/>
    </contour>
    <contour>
      <point x="694" y="460" type="line"/>
      <point x="674" y="237"/>
      <point x="522" y="-10"/>
      <point x="275" y="-10" type="curve" smooth="yes"/>
      <point x="132" y="-10"/>
      <point x="40" y="61"/>
      <point x="40" y="180" type="curve" smooth="yes"/>
      <point x="40" y="328"/>
      <point x="217" y="365"/>
      <point x="323" y="428" type="curve" smooth="yes"/>
      <point x="398" y="474"/>
      <point x="457" y="490"/>
      <point x="457" y="632" type="curve" smooth="yes"/>
      <point x="457" y="683"/>
      <point x="441" y="758"/>
      <point x="374" y="758" type="curve" smooth="yes"/>
      <point x="306" y="758"/>
      <point x="282" y="697"/>
      <point x="282" y="646" type="curve" smooth="yes"/>
      <point x="282" y="609"/>
      <point x="309" y="554"/>
      <point x="352" y="490" type="curve" smooth="yes"/>
      <point x="669" y="2" type="line"/>
      <point x="795" y="2" type="line"/>
      <point x="795" y="0" type="line"/>
      <point x="537" y="0" type="line"/>
      <point x="206" y="490" type="line" smooth="yes"/>
      <point x="180" y="528"/>
      <point x="160" y="578"/>
      <point x="160" y="613" type="curve" smooth="yes"/>
      <point x="160" y="703"/>
      <point x="249" y="760"/>
      <point x="375" y="760" type="curve" smooth="yes"/>
      <point x="492" y="760"/>
      <point x="573" y="707"/>
      <point x="573" y="629" type="curve" smooth="yes"/>
      <point x="573" y="508"/>
      <point x="445" y="498"/>
      <point x="326" y="428" type="curve" smooth="yes"/>
      <point x="243" y="381"/>
      <point x="172" y="342"/>
      <point x="172" y="206" type="curve" smooth="yes"/>
      <point x="172" y="106"/>
      <point x="239" y="12"/>
      <point x="333" y="12" type="curve" smooth="yes"/>
      <point x="523" y="12"/>
      <point x="672" y="241"/>
      <point x="692" y="460" type="curve"/>
    </contour>
  </outline>
</glyph>
<glyph name="quotesingle" format="2">
  <advance width="1792"/>
  <unicode hex="0027"/>
  <outline>
    <contour>
      <point x="1384" y="5384" type="curve" smooth="yes"/>
      <point x="1296" y="4784"/>
      <point x="904" y="4672"/>
      <point x="904" y="3792" type="curve"/>
      <point x="888" y="3792" type="line"/>
      <point x="888" y="4672"/>
      <point x="496" y="4784"/>
      <point x="408" y="5384" type="curve" smooth="yes"/>
      <point x="400" y="5440"/>
      <point x="400" y="5480"/>
      <point x="400" y="5528" type="curve" smooth="yes"/>
      <point x="400" y="5872"/>
      <point x="616" y="6080"/>
      <point x="896" y="6080" type="curve" smooth="yes"/>
      <point x="1176" y="6080"/>
      <point x="1392" y="5872"/>
      <point x="1392" y="5528" type="curve" smooth="yes"/>
      <point x="1392" y="5480"/>
      <point x="1392" y="5440"/>
    </contour>
  </outline>
</glyph>
<glyph name="parenleft" format="2">
  <advance width="2928"/>
  <unicode hex="0028"/>
  <outline>
    <contour>
      <point x="2784" y="-1344" type="curve"/>
      <point x="2776" y="-1360" type="line"/>
      <point x="1472" y="-800"/>
      <point x="520" y="736"/>
      <point x="520" y="2600" type="curve" smooth="yes"/>
      <point x="520" y="4464"/>
      <point x="1472" y="5840"/>
      <point x="2776" y="6400" type="curve"/>
      <point x="2784" y="6384" type="line"/>
      <point x="1872" y="5792"/>
      <point x="1472" y="4136"/>
      <point x="1472" y="2600" type="curve" smooth="yes"/>
      <point x="1472" y="1064"/>
      <point x="1872" y="-752"/>
    </contour>
  </outline>
</glyph>
<glyph name="plus" format="2">
  <advance width="530"/>
  <unicode hex="002B"/>
  <outline>
    <contour>
      <point x="264" y="110" type="line"/>
      <point x="264" y="520" type="line"/>
      <point x="266" y="520" type="line"/>
      <point x="266" y="110" type="line"/>
    </contour>
    <contour>
      <point x="60" y="317" type="line"/>
      <point x="470" y="317" type="line"/>
      <point x="470" y="315" type="line"/>
      <point x="60" y="315" type="line"/>
    </contour>
  </outline>
</glyph>
<glyph name="comma" format="2">
  <advance width="1912"/>
  <unicode hex="002C"/>
  <outline>
    <contour>
      <point x="320" y="488" type="curve" smooth="yes"/>
      <point x="320" y="800"/>
      <point x="600" y="1056"/>
      <point x="952" y="1056" type="curve" smooth="yes"/>
      <point x="1312" y="1056"/>
      <point x="1608" y="760"/>
      <point x="1608" y="128" type="curve" smooth="yes"/>
      <point x="1608" y="-528"/>
      <point x="1120" y="-1192"/>
      <point x="304" y="-1192" type="curve"/>
      <point x="304" y="-1176" type="line"/>
      <point x="1120" y="-1176"/>
      <point x="1768" y="-448"/>
      <point x="1544" y="528" type="curve"/>
      <point x="1504" y="224"/>
      <point x="1280" y="-80"/>
      <point x="920" y="-80" type="curve" smooth="yes"/>
      <point x="528" y="-80"/>
      <point x="320" y="176"/>
    </contour>
  </outline>
</glyph>
<glyph name="hyphen" format="2">
  <advance width="2880"/>
  <unicode hex="002D"/>
  <outline>
    <contour>
      <point x="480" y="2208" type="line"/>
      <point x="2400" y="2208" type="line"/>
      <point x="2400" y="2192" type="line"/>
      <point x="480" y="2192" type="line"/>
    </contour>
  </outline>
</glyph>
<glyph name="period" format="2">
  <advance width="941"/>
  <unicode hex="002E"/>
  <outline>
    <contour>
      <point x="164" y="265.5" type="curve" smooth="yes"/>
      <point x="164" y="435"/>
      <point x="302" y="573"/>
      <point x="471.5" y="573" type="curve" smooth="yes"/>
      <point x="641" y="573"/>
      <point x="778.5" y="435"/>
      <point x="778.5" y="265.5" type="curve" smooth="yes"/>
      <point x="778.5" y="96"/>
      <point x="641" y="-40"/>
      <point x="471.5" y="-40" type="curve" smooth="yes"/>
      <point x="302" y="-40"/>
      <point x="164" y="96"/>
    </contour>
  </outline>
</glyph>
<glyph name="slash" format="2">
  <advance width="520"/>
  <unicode hex="002F"/>
  <outline>
    <contour>
      <point x="478" y="780" type="line"/>
      <point x="480" y="780" type="line"/>
      <point x="42" y="-150" type="line"/>
      <point x="40" y="-150" type="line"/>
    </contour>
  </outline>
</glyph>
<glyph name="two" format="2">
  <advance width="4560"/>
  <unicode hex="0032"/>
  <outline>
    <contour>
      <point x="4280" y="0" type="line"/>
      <point x="320" y="0" type="line"/>
      <point x="320" y="632" type="line"/>
      <point x="2064" y="2208" type="line" smooth="yes"/>
      <point x="2784" y="2864"/>
      <point x="3120" y="3536"/>
      <point x="3120" y="4336" type="curve" smooth="yes"/>
      <point x="3120" y="5280"/>
      <point x="2760" y="5992"/>
      <point x="1944" y="5992" type="curve" smooth="yes"/>
      <point x="1088" y="5992"/>
      <point x="384" y="5272"/>
      <point x="432" y="4312" type="curve"/>
      <point x="504" y="4544"/>
      <point x="704" y="4752"/>
      <point x="1032" y="4752" type="curve" smooth="yes"/>
      <point x="1344" y="4752"/>
      <point x="1616" y="4536"/>
      <point x="1616" y="4208" type="curve" smooth="yes"/>
      <point x="1616" y="3840"/>
      <point x="1328" y="3608"/>
      <point x="1000" y="3608" type="curve" smooth="yes"/>
      <point x="672" y="3608"/>
      <point x="408" y="3848"/>
      <point x="408" y="4392" type="curve" smooth="yes"/>
      <point x="408" y="5328"/>
      <point x="1072" y="6080"/>
      <point x="2280" y="6080" type="curve" smooth="yes"/>
      <point x="3456" y="6080"/>
      <point x="4112" y="5376"/>
      <point x="4112" y="4560" type="curve" smooth="yes"/>
      <point x="4112" y="3712"/>
      <point x="3304" y="3272"/>
      <point x="2808" y="2840" type="curve" smooth="yes"/>
      <point x="704" y="912" type="line"/>
      <point x="4264" y="912" type="line"/>
      <point x="4264" y="1512" type="line"/>
      <point x="4280" y="1512" type="line"/>
    </contour>
  </outline>
</glyph>
<glyph name="three" format="2">
  <advance width="4328"/>
  <unicode hex="0033"/>
  <outline>
    <contour>
      <point x="4008" y="1616" type="curve" smooth="yes"/>
      <point x="4008" y="560"/>
      <point x="3088" y="-80"/>
      <point x="1928" y="-80" type="curve" smooth="yes"/>
      <point x="744" y="-80"/>
      <point x="200" y="560"/>
      <point x="200" y="1168" type="curve" smooth="yes"/>
      <point x="200" y="1544"/>
      <point x="440" y="1776"/>
      <point x="768" y="1776" type="curve" smooth="yes"/>
      <point x="1056" y="1776"/>
      <point x="1280" y="1576"/>
      <point x="1280" y="1240" type="curve" smooth="yes"/>
      <point x="1280" y="936"/>
      <point x="1016" y="720"/>
      <point x="736" y="720" type="curve" smooth="yes"/>
      <point x="472" y="720"/>
      <point x="304" y="864"/>
      <point x="240" y="1048" type="curve"/>
      <point x="288" y="520"/>
      <point x="808" y="-40"/>
      <point x="1816" y="-40" type="curve" smooth="yes"/>
      <point x="2736" y="-40"/>
      <point x="3008" y="816"/>
      <point x="3008" y="1616" type="curve" smooth="yes"/>
      <point x="3008" y="2256"/>
      <point x="2784" y="3232"/>
      <point x="1512" y="3232" type="curve"/>
      <point x="1512" y="3248" type="line"/>
      <point x="3472" y="3248"/>
      <point x="4008" y="2512"/>
    </contour>
    <contour>
      <point x="1512" y="3232" type="curve"/>
      <point x="1512" y="3248" type="line"/>
      <point x="2704" y="3248"/>
      <point x="2768" y="4200"/>
      <point x="2768" y="4728" type="curve" smooth="yes"/>
      <point x="2768" y="5336"/>
      <point x="2520" y="6040"/>
      <point x="1920" y="6040" type="curve" smooth="yes"/>
      <point x="1296" y="6040"/>
      <point x="632" y="5656"/>
      <point x="496" y="5112" type="curve"/>
      <point x="608" y="5312"/>
      <point x="808" y="5400"/>
      <point x="992" y="5400" type="curve" smooth="yes"/>
      <point x="1256" y="5400"/>
      <point x="1512" y="5208"/>
      <point x="1512" y="4888" type="curve" smooth="yes"/>
      <point x="1512" y="4528"/>
      <point x="1224" y="4352"/>
      <point x="976" y="4352" type="curve" smooth="yes"/>
      <point x="688" y="4352"/>
      <point x="440" y="4544"/>
      <point x="440" y="4912" type="curve" smooth="yes"/>
      <point x="440" y="5536"/>
      <point x="1176" y="6072"/>
      <point x="1992" y="6072" type="curve" smooth="yes"/>
      <point x="2944" y="6072"/>
      <point x="3768" y="5592"/>
      <point x="3768" y="4712" type="curve" smooth="yes"/>
      <point x="3768" y="3912"/>
      <point x="3392" y="3232"/>
    </contour>
  </outline>
</glyph>
<glyph name="four" format="2">
  <advance width="613"/>
  <unicode hex="0034"/>
  <outline>
    <contour>
      <point x="568" y="2" type="line"/>
      <point x="568" y="0" type="line"/>
      <point x="279" y="0" type="line"/>
      <point x="279" y="2" type="line"/>
      <point x="374" y="2" type="line"/>
      <point x="374" y="710" type="line"/>
      <point x="39" y="216" type="line"/>
      <point x="603" y="216" type="line"/>
      <point x="603" y="214" type="line"/>
      <point x="35" y="214" type="line"/>
      <point x="399" y="750" type="line"/>
      <point x="493" y="750" type="line"/>
      <point x="493" y="2" type="line"/>
    </contour>
  </outline>
</glyph>
<glyph name="five" format="2">
  <advance width="4112"/>
  <unicode hex="0035"/>
  <outline>
    <contour>
      <point x="3592" y="5088" type="line"/>
      <point x="520" y="5088" type="line"/>
      <point x="520" y="2952" type="line"/>
      <point x="504" y="2952" type="line"/>
      <point x="504" y="6000" type="line"/>
      <point x="3576" y="6000" type="line"/>
      <point x="3576" y="6440" type="line"/>
      <point x="3592" y="6440" type="line"/>
    </contour>
    <contour>
      <point x="224" y="880" type="curve"/>
      <point x="328" y="384"/>
      <point x="944" y="-48"/>
      <point x="1616" y="-48" type="curve" smooth="yes"/>
      <point x="2584" y="-48"/>
      <point x="2840" y="1000"/>
      <point x="2840" y="1816" type="curve" smooth="yes"/>
      <point x="2840" y="2792"/>
      <point x="2512" y="3664"/>
      <point x="1816" y="3664" type="curve" smooth="yes"/>
      <point x="1168" y="3664"/>
      <point x="664" y="3248"/>
      <point x="528" y="2952" type="curve"/>
      <point x="512" y="2952" type="line"/>
      <point x="656" y="3280"/>
      <point x="1192" y="3712"/>
      <point x="2016" y="3712" type="curve" smooth="yes"/>
      <point x="3128" y="3712"/>
      <point x="3872" y="3016"/>
      <point x="3872" y="1816" type="curve" smooth="yes"/>
      <point x="3872" y="760"/>
      <point x="2984" y="-80"/>
      <point x="1728" y="-80" type="curve" smooth="yes"/>
      <point x="896" y="-80"/>
      <point x="176" y="424"/>
      <point x="176" y="1064" type="curve" smooth="yes"/>
      <point x="176" y="1440"/>
      <point x="432" y="1656"/>
      <point x="728" y="1656" type="curve" smooth="yes"/>
      <point x="992" y="1656"/>
      <point x="1280" y="1488"/>
      <point x="1280" y="1120" type="curve" smooth="yes"/>
      <point x="1280" y="792"/>
      <point x="1008" y="576"/>
      <point x="712" y="576" type="curve" smooth="yes"/>
      <point x="480" y="576"/>
      <point x="296" y="728"/>
    </contour>
  </outline>
</glyph>
<glyph name="six" format="2">
  <advance width="4640"/>
  <unicode hex="0036"/>
  <outline>
    <contour>
      <point x="3392" y="2000" type="curve" smooth="yes"/>
      <point x="3392" y="3152"/>
      <point x="3032" y="3856"/>
      <point x="2400" y="3856" type="curve" smooth="yes"/>
      <point x="1648" y="3856"/>
      <point x="1408" y="3184"/>
      <point x="1408" y="2240" type="curve"/>
      <point x="1392" y="2240" type="line"/>
      <point x="1392" y="3224"/>
      <point x="1600" y="3928"/>
      <point x="2600" y="3928" type="curve" smooth="yes"/>
      <point x="3440" y="3928"/>
      <point x="4400" y="3360"/>
      <point x="4400" y="2000" type="curve" smooth="yes"/>
      <point x="4400" y="800"/>
      <point x="3672" y="-80"/>
      <point x="2432" y="-80" type="curve" smooth="yes"/>
      <point x="1192" y="-80"/>
      <point x="400" y="800"/>
      <point x="400" y="2480" type="curve" smooth="yes"/>
      <point x="400" y="4424"/>
      <point x="1888" y="6080"/>
      <point x="3800" y="6080" type="curve"/>
      <point x="3800" y="6064" type="line"/>
      <point x="2392" y="6064"/>
      <point x="1408" y="4448"/>
      <point x="1408" y="2624" type="curve"/>
      <point x="1408" y="2240" type="line"/>
      <point x="1408" y="1088"/>
      <point x="1680" y="-64"/>
      <point x="2456" y="-64" type="curve" smooth="yes"/>
      <point x="3232" y="-64"/>
      <point x="3392" y="1008"/>
    </contour>
  </outline>
</glyph>
<glyph name="seven" format="2">
  <advance width="2139"/>
  <unicode hex="0037"/>
  <outline>
    <contour>
      <point x="647" y="342.5" type="curve" smooth="yes"/>
      <point x="647" y="666.5"/>
      <point x="1017" y="1072"/>
      <point x="1268.5" y="1518" type="curve" smooth="yes"/>
      <point x="1418" y="1791"/>
      <point x="1626.5" y="2203.5"/>
      <point x="1808" y="2559.5" type="curve"/>
      <point x="172" y="2559.5" type="line"/>
      <point x="172" y="2253" type="line"/>
      <point x="164" y="2253" type="line"/>
      <point x="164" y="3072" type="line"/>
      <point x="2099.5" y="3072" type="line"/>
      <point x="2099.5" y="3072"/>
      <point x="1593" y="2077"/>
      <point x="1289.5" y="1522.5" type="curve" smooth="yes"/>
      <point x="1091" y="1158"/>
      <point x="995" y="1059"/>
      <point x="995" y="899.5" type="curve" smooth="yes"/>
      <point x="995" y="620"/>
      <point x="1302" y="560"/>
      <point x="1302" y="289" type="curve" smooth="yes"/>
      <point x="1302" y="106.5"/>
      <point x="1189.5" y="-40"/>
      <point x="978.5" y="-40" type="curve" smooth="yes"/>
      <point x="788" y="-40"/>
      <point x="647" y="80"/>
    </contour>
  </outline>
</glyph>
<glyph name="question" format="2">
  <advance width="4512"/>
  <unicode hex="003F"/>
  <outline>
    <contour>
      <point x="1984" y="2824" type="line"/>
      <point x="2792" y="3008"/>
      <point x="3112" y="3736"/>
      <point x="3112" y="4480" type="curve" smooth="yes"/>
      <point x="3112" y="5232"/>
      <point x="2984" y="6048"/>
      <point x="2096" y="6048" type="curve" smooth="yes"/>
      <point x="1216" y="6048"/>
      <point x="568" y="5336"/>
      <point x="520" y="4848" type="curve"/>
      <point x="560" y="4976"/>
      <point x="736" y="5152"/>
      <point x="1016" y="5152" type="curve" smooth="yes"/>
      <point x="1296" y="5152"/>
      <point x="1552" y="4968"/>
      <point x="1552" y="4648" type="curve" smooth="yes"/>
      <point x="1552" y="4288"/>
      <point x="1280" y="4120"/>
      <point x="1016" y="4120" type="curve" smooth="yes"/>
      <point x="712" y="4120"/>
      <point x="480" y="4328"/>
      <point x="480" y="4696" type="curve" smooth="yes"/>
      <point x="480" y="5368"/>
      <point x="1232" y="6080"/>
      <point x="2192" y="6080" type="curve" smooth="yes"/>
      <point x="3352" y="6080"/>
      <point x="4112" y="5440"/>
      <point x="4112" y="4480" type="curve" smooth="yes"/>
      <point x="4112" y="3560"/>
      <point x="3208" y="2880"/>
      <point x="2000" y="2808" type="curve"/>
      <point x="2000" y="1784" type="line"/>
      <point x="1984" y="1784" type="line"/>
    </contour>
    <component base="period" xOffset="1160"/>
  </outline>
</glyph>
<glyph name="A" format="2">
  <advance width="753"/>
  <unicode hex="0041"/>
  <outline>
    <contour>
      <point x="19" y="2" type="line"/>
      <point x="239" y="2" type="line"/>
      <point x="239" y="0" type="line"/>
      <point x="19" y="0" type="line"/>
    </contour>
    <contour>
      <point x="429" y="2" type="line"/>
      <point x="739" y="2" type="line"/>
      <point x="739" y="0" type="line"/>
      <point x="429" y="0" type="line"/>
    </contour>
    <contour>
      <point x="201" y="245" type="line"/>
      <point x="519" y="245" type="line"/>
      <point x="519" y="243" type="line"/>
      <point x="201" y="243" type="line"/>
    </contour>
    <contour>
      <point x="333" y="615" type="line"/>
      <point x="117" y="0" type="line"/>
      <point x="115" y="0" type="line"/>
      <point x="383" y="765" type="line"/>
      <point x="404" y="765" type="line"/>
      <point x="669" y="0" type="line"/>
      <point x="531" y="0" type="line"/>
    </contour>
  </outline>
</glyph>
<glyph name="C" format="2">
  <advance width="682"/>
  <unicode hex="0043"/>
  <outline>
    <contour>
      <point x="631" y="750" type="line"/>
      <point x="633" y="750" type="line"/>
      <point x="633" y="539" type="line"/>
      <point x="624" y="607"/>
      <point x="594" y="656"/>
      <point x="556" y="694" type="curve"/>
    </contour>
    <contour>
      <point x="633" y="539" type="curve"/>
      <point x="631" y="539" type="line"/>
      <point x="617" y="664"/>
      <point x="516" y="755"/>
      <point x="402" y="755" type="curve" smooth="yes"/>
      <point x="238" y="755"/>
      <point x="183" y="557"/>
      <point x="183" y="375" type="curve" smooth="yes"/>
      <point x="183" y="193"/>
      <point x="238" y="-5"/>
      <point x="402" y="-5" type="curve" smooth="yes"/>
      <point x="540" y="-5"/>
      <point x="630" y="95"/>
      <point x="641" y="211" type="curve"/>
      <point x="643" y="211" type="line"/>
      <point x="631" y="84"/>
      <point x="535" y="-10"/>
      <point x="392" y="-10" type="curve" smooth="yes"/>
      <point x="181" y="-10"/>
      <point x="44" y="152"/>
      <point x="44" y="375" type="curve" smooth="yes"/>
      <point x="44" y="598"/>
      <point x="181" y="760"/>
      <point x="392" y="760" type="curve" smooth="yes"/>
      <point x="520" y="760"/>
      <point x="619" y="666"/>
    </contour>
    <contour>
      <point x="643" y="211" type="curve"/>
      <point x="643" y="0" type="line"/>
      <point x="641" y="0" type="line"/>
      <point x="573" y="62" type="line"/>
      <point x="610" y="99"/>
      <point x="635" y="143"/>
    </contour>
  </outline>
</glyph>
<glyph name="E" format="2">
  <advance width="2483"/>
  <unicode hex="0045"/>
  <outline>
    <contour>
      <point x="2353" y="922" type="curve"/>
      <point x="2361" y="922" type="line"/>
      <point x="2361" y="0" type="line"/>
      <point x="77" y="0" type="line"/>
      <point x="77" y="8" type="line"/>
      <point x="1501" y="8" type="line" smooth="yes"/>
      <point x="2063" y="8"/>
      <point x="2322.5" y="402"/>
    </contour>
    <contour>
      <point x="445" y="3072" type="line"/>
      <point x="957.5" y="3072" type="line"/>
      <point x="957.5" y="0" type="line"/>
      <point x="445" y="0" type="line"/>
    </contour>
    <contour>
      <point x="77" y="3072" type="line"/>
      <point x="2319" y="3072" type="line"/>
      <point x="2319" y="2232" type="line"/>
      <point x="2311" y="2232" type="line"/>
      <point x="2280.5" y="2670"/>
      <point x="2021" y="3064"/>
      <point x="1541" y="3064" type="curve" smooth="yes"/>
      <point x="77" y="3064" type="line"/>
    </contour>
    <contour>
      <point x="1645.5" y="1107.5" type="line"/>
      <point x="1615" y="1381.5"/>
      <point x="1386.5" y="1586"/>
      <point x="1152.5" y="1586" type="curve" smooth="yes"/>
      <point x="845" y="1586" type="line"/>
      <point x="845" y="1594" type="line"/>
      <point x="1152.5" y="1594" type="line" smooth="yes"/>
      <point x="1386.5" y="1594"/>
      <point x="1615" y="1776.5"/>
      <point x="1645.5" y="2050.5" type="curve"/>
      <point x="1654" y="2050.5" type="line"/>
      <point x="1654" y="1107.5" type="line"/>
    </contour>
  </outline>
</glyph>
<glyph name="F" format="2">
  <advance width="4632"/>
  <unicode hex="0046"/>
  <outline>
    <contour>
      <point x="152" y="6000" type="line"/>
      <point x="4400" y="6000" type="line"/>
      <point x="4400" y="4360" type="line"/>
      <point x="4384" y="4360" type="line"/>
      <point x="4336" y="5216"/>
      <point x="3880" y="5984"/>
      <point x="2960" y="5984" type="curve" smooth="yes"/>
      <point x="152" y="5984" type="line"/>
    </contour>
    <contour>
      <point x="152" y="16" type="line"/>
      <point x="2624" y="16" type="line"/>
      <point x="2624" y="0" type="line"/>
      <point x="152" y="0" type="line"/>
    </contour>
    <contour>
      <point x="872" y="6000" type="line"/>
      <point x="1824" y="6000" type="line"/>
      <point x="1824" y="0" type="line"/>
      <point x="872" y="0" type="line"/>
    </contour>
    <contour>
      <point x="3216" y="2080" type="line"/>
      <point x="3168" y="2616"/>
      <point x="2784" y="2976"/>
      <point x="2120" y="2976" type="curve" smooth="yes"/>
      <point x="1600" y="2976" type="line"/>
      <point x="1600" y="2992" type="line"/>
      <point x="2120" y="2992" type="line" smooth="yes"/>
      <point x="2784" y="2992"/>
      <point x="3168" y="3312"/>
      <point x="3216" y="3848" type="curve"/>
      <point x="3232" y="3848" type="line"/>
      <point x="3232" y="2080" type="line"/>
    </contour>
  </outline>
</glyph>
<glyph name="G" format="2">
  <advance width="3004"/>
  <unicode hex="0047"/>
  <outline>
    <contour>
      <point x="2637" y="2201.5" type="line"/>
      <point x="2585.5" y="2503.5"/>
      <point x="2445" y="2720"/>
      <point x="2288" y="2853.5" type="curve"/>
      <point x="2629" y="3072" type="line"/>
      <point x="2637" y="3072" type="line"/>
    </contour>
    <contour>
      <point x="1756" y="1172" type="line"/>
      <point x="2964.5" y="1172" type="line"/>
      <point x="2964.5" y="1164" type="line"/>
      <point x="1756" y="1164" type="line"/>
    </contour>
    <contour>
      <point x="2186" y="1168" type="line"/>
      <point x="2739" y="1168" type="line"/>
      <point x="2739" y="655.5" type="line"/>
      <point x="2545" y="387"/>
      <point x="2229.5" y="-40"/>
      <point x="1561.5" y="-40" type="curve" smooth="yes"/>
      <point x="679" y="-40"/>
      <point x="168.5" y="601.5"/>
      <point x="168.5" y="1536" type="curve" smooth="yes"/>
      <point x="168.5" y="2470.5"/>
      <point x="790" y="3112"/>
      <point x="1622" y="3112" type="curve" smooth="yes"/>
      <point x="2146" y="3112"/>
      <point x="2585" y="2705.5"/>
      <point x="2637" y="2201.5" type="curve"/>
      <point x="2629" y="2201.5" type="line"/>
      <point x="2588" y="2676.5"/>
      <point x="2153" y="3091"/>
      <point x="1669" y="3091" type="curve" smooth="yes"/>
      <point x="1008" y="3091"/>
      <point x="763" y="2282"/>
      <point x="763" y="1536" type="curve" smooth="yes"/>
      <point x="763" y="790"/>
      <point x="920.5" y="-32"/>
      <point x="1561.5" y="-32" type="curve" smooth="yes"/>
      <point x="1987.5" y="-32"/>
      <point x="2135.5" y="381"/>
      <point x="2186" y="512" type="curve"/>
    </contour>
  </outline>
</glyph>
<glyph name="H" format="2">
  <advance width="3133"/>
  <unicode hex="0048"/>
  <outline>
    <contour>
      <point x="870.25" y="1520" type="line"/>
      <point x="2263.25" y="1520" type="line"/>
      <point x="2263.25" y="1512" type="line"/>
      <point x="870.25" y="1512" type="line"/>
    </contour>
    <contour>
      <point x="1792.25" y="8" type="line"/>
      <point x="3062.25" y="8" type="line"/>
      <point x="3062.25" y="0" type="line"/>
      <point x="1792.25" y="0" type="line"/>
    </contour>
    <contour>
      <point x="71.75" y="8" type="line"/>
      <point x="1341.75" y="8" type="line"/>
      <point x="1341.75" y="0" type="line"/>
      <point x="71.75" y="0" type="line"/>
    </contour>
    <contour>
      <point x="1792.25" y="3072" type="line"/>
      <point x="3062.25" y="3072" type="line"/>
      <point x="3062.25" y="3064" type="line"/>
      <point x="1792.25" y="3064" type="line"/>
    </contour>
    <contour>
      <point x="71.75" y="3072" type="line"/>
      <point x="1341.75" y="3072" type="line"/>
      <point x="1341.75" y="3064" type="line"/>
      <point x="71.75" y="3064" type="line"/>
    </contour>
    <contour>
      <point x="2181.25" y="3072" type="line"/>
      <point x="2692.75" y="3072" type="line"/>
      <point x="2692.75" y="0" type="line"/>
      <point x="2181.25" y="0" type="line"/>
    </contour>
    <contour>
      <point x="439.75" y="3072" type="line"/>
      <point x="952.25" y="3072" type="line"/>
      <point x="952.25" y="0" type="line"/>
      <point x="439.75" y="0" type="line"/>
    </contour>
  </outline>
</glyph>
<glyph name="I" format="2">
  <advance width="1597"/>
  <unicode hex="0049"/>
  <outline>
    <contour>
      <point x="71.75" y="8" type="line"/>
      <point x="1526.25" y="8" type="line"/>
      <point x="1526.25" y="0" type="line"/>
      <point x="71.75" y="0" type="line"/>
    </contour>
    <contour>
      <point x="71.75" y="3072" type="line"/>
      <point x="1526.25" y="3072" type="line"/>
      <point x="1526.25" y="3064" type="line"/>
      <point x="71.75" y="3064" type="line"/>
    </contour>
    <contour>
      <point x="521.75" y="3072" type="line"/>
      <point x="1034.25" y="3072" type="line"/>
      <point x="1034.25" y="0" type="line"/>
      <point x="521.75" y="0" type="line"/>
    </contour>
  </outline>
</glyph>
<glyph name="J" format="2">
  <advance width="1964"/>
  <unicode hex="004A"/>
  <outline>
    <contour>
      <point x="449.5" y="3072" type="line"/>
      <point x="1904" y="3072" type="line"/>
      <point x="1904" y="3064" type="line"/>
      <point x="449.5" y="3064" type="line"/>
    </contour>
    <contour>
      <point x="981.5" y="3072" type="line"/>
      <point x="1494" y="3072" type="line"/>
      <point x="1494" y="696" type="line"/>
      <point x="1371" y="358.5"/>
      <point x="1180.5" y="-122"/>
      <point x="633.5" y="-122" type="curve" smooth="yes"/>
      <point x="266.5" y="-122"/>
      <point x="56.5" y="133.5"/>
      <point x="56.5" y="389" type="curve" smooth="yes"/>
      <point x="56.5" y="591.5"/>
      <point x="198" y="716.5"/>
      <point x="361" y="716.5" type="curve" smooth="yes"/>
      <point x="504" y="716.5"/>
      <point x="652" y="611.5"/>
      <point x="652" y="413" type="curve" smooth="yes"/>
      <point x="652" y="228.5"/>
      <point x="514.5" y="114.5"/>
      <point x="345" y="114.5" type="curve" smooth="yes"/>
      <point x="223.5" y="114.5"/>
      <point x="137" y="158.5"/>
      <point x="112.5" y="185" type="curve"/>
      <point x="176.5" y="58.5"/>
      <point x="343" y="-114"/>
      <point x="628.5" y="-114" type="curve" smooth="yes"/>
      <point x="950" y="-114"/>
      <point x="981.5" y="204"/>
      <point x="981.5" y="778" type="curve" smooth="yes"/>
    </contour>
  </outline>
</glyph>
<glyph name="K" format="2">
  <advance width="2963"/>
  <unicode hex="004B"/>
  <outline>
    <contour>
      <point x="77" y="8" type="line"/>
      <point x="1347" y="8" type="line"/>
      <point x="1347" y="0" type="line"/>
      <point x="77" y="0" type="line"/>
    </contour>
    <contour>
      <point x="77" y="3072" type="line"/>
      <point x="1367.5" y="3072" type="line"/>
      <point x="1367.5" y="3064" type="line"/>
      <point x="77" y="3064" type="line"/>
    </contour>
    <contour>
      <point x="445" y="3072" type="line"/>
      <point x="957.5" y="3072" type="line"/>
      <point x="957.5" y="0" type="line"/>
      <point x="445" y="0" type="line"/>
    </contour>
    <contour>
      <point x="548" y="888" type="line"/>
      <point x="536" y="888" type="line"/>
      <point x="2273" y="3064" type="line"/>
      <point x="2285" y="3064" type="line"/>
    </contour>
    <contour>
      <point x="1572.5" y="8" type="line"/>
      <point x="2943.5" y="8" type="line"/>
      <point x="2943.5" y="0" type="line"/>
      <point x="1572.5" y="0" type="line"/>
    </contour>
    <contour>
      <point x="2759.5" y="3064" type="line"/>
      <point x="1777" y="3064" type="line"/>
      <point x="1777" y="3072" type="line"/>
      <point x="2759.5" y="3072" type="line"/>
    </contour>
    <contour>
      <point x="2625" y="0" type="line"/>
      <point x="2010.5" y="0" type="line"/>
      <point x="1103.5" y="1597.5" type="line"/>
      <point x="1436.5" y="2002" type="line"/>
    </contour>
  </outline>
</glyph>
<glyph name="L" format="2">
  <advance width="2420"/>
  <unicode hex="004C"/>
  <outline>
    <contour>
      <point x="439.75" y="3072" type="line"/>
      <point x="952.25" y="3072" type="line"/>
      <point x="952.25" y="0" type="line"/>
      <point x="439.75" y="0" type="line"/>
    </contour>
    <contour>
      <point x="71.75" y="3072" type="line"/>
      <point x="1320.75" y="3072" type="line"/>
      <point x="1320.75" y="3064" type="line"/>
      <point x="71.75" y="3064" type="line"/>
    </contour>
    <contour>
      <point x="2339.25" y="0" type="line"/>
      <point x="71.75" y="0" type="line"/>
      <point x="71.75" y="8" type="line"/>
      <point x="1479.25" y="8" type="line" smooth="yes"/>
      <point x="2102.75" y="8"/>
      <point x="2300.75" y="402"/>
      <point x="2331.25" y="922" type="curve"/>
      <point x="2339.25" y="922" type="line"/>
    </contour>
  </outline>
</glyph>
<glyph name="M" format="2">
  <advance width="6776"/>
  <unicode hex="004D"/>
  <outline>
    <contour>
      <point x="6664" y="6000" type="line"/>
      <point x="6664" y="5984" type="line"/>
      <point x="6104" y="5984" type="line"/>
      <point x="6104" y="0" type="line"/>
      <point x="5152" y="0" type="line"/>
      <point x="5152" y="6000" type="line"/>
    </contour>
    <contour>
      <point x="192" y="16" type="line"/>
      <point x="1408" y="16" type="line"/>
      <point x="1408" y="0" type="line"/>
      <point x="192" y="0" type="line"/>
    </contour>
    <contour>
      <point x="4512" y="16" type="line"/>
      <point x="6664" y="16" type="line"/>
      <point x="6664" y="0" type="line"/>
      <point x="4512" y="0" type="line"/>
    </contour>
    <contour>
      <point x="3480" y="1304" type="line"/>
      <point x="5144" y="6000" type="line"/>
      <point x="5160" y="6000" type="line"/>
      <point x="3016" y="-80" type="line"/>
      <point x="3000" y="-80" type="line"/>
      <point x="776" y="6000" type="line"/>
      <point x="1736" y="6000" type="line"/>
    </contour>
    <contour>
      <point x="768" y="5984" type="line"/>
      <point x="152" y="5984" type="line"/>
      <point x="152" y="6000" type="line"/>
      <point x="784" y="6000" type="line"/>
      <point x="784" y="0" type="line"/>
      <point x="768" y="0" type="line"/>
    </contour>
  </outline>
</glyph>
<glyph name="N" format="2">
  <advance width="3025"/>
  <unicode hex="004E"/>
  <outline>
    <contour>
      <point x="2526" y="3072" type="line"/>
      <point x="2534" y="3072" type="line"/>
      <point x="2534" y="-40" type="line"/>
      <point x="2526" y="-40" type="line"/>
      <point x="487" y="3072" type="line"/>
      <point x="1100.5" y="3072" type="line"/>
      <point x="2526" y="832" type="line"/>
    </contour>
    <contour>
      <point x="2044.5" y="3072" type="line"/>
      <point x="2964" y="3072" type="line"/>
      <point x="2964" y="3064" type="line"/>
      <point x="2044.5" y="3064" type="line"/>
    </contour>
    <contour>
      <point x="77" y="8" type="line"/>
      <point x="976.5" y="8" type="line"/>
      <point x="976.5" y="0" type="line"/>
      <point x="77" y="0" type="line"/>
    </contour>
    <contour>
      <point x="482.5" y="3064" type="line"/>
      <point x="77" y="3064" type="line"/>
      <point x="77" y="3072" type="line"/>
      <point x="491" y="3072" type="line"/>
      <point x="491" y="0" type="line"/>
      <point x="482.5" y="0" type="line"/>
    </contour>
  </outline>
</glyph>
<glyph name="O" format="2">
  <advance width="3040"/>
  <unicode hex="004F"/>
  <outline>
    <contour>
      <point x="1521" y="-40" type="curve" smooth="yes"/>
      <point x="668.5" y="-40"/>
      <point x="168.5" y="653.5"/>
      <point x="168.5" y="1536" type="curve" smooth="yes"/>
      <point x="168.5" y="2418.5"/>
      <point x="710.5" y="3112"/>
      <point x="1521" y="3112" type="curve" smooth="yes"/>
      <point x="2331.5" y="3112"/>
      <point x="2872" y="2418.5"/>
      <point x="2872" y="1536" type="curve" smooth="yes"/>
      <point x="2872" y="653.5"/>
      <point x="2373.5" y="-40"/>
    </contour>
    <contour>
      <point x="1521" y="3104" type="curve" smooth="yes"/>
      <point x="920.5" y="3104"/>
      <point x="763" y="2333"/>
      <point x="763" y="1536" type="curve" smooth="yes"/>
      <point x="763" y="739"/>
      <point x="880.5" y="-32"/>
      <point x="1521" y="-32" type="curve" smooth="yes"/>
      <point x="2161.5" y="-32"/>
      <point x="2277.5" y="739"/>
      <point x="2277.5" y="1536" type="curve" smooth="yes"/>
      <point x="2277.5" y="2333"/>
      <point x="2121.5" y="3104"/>
    </contour>
  </outline>
</glyph>
<glyph name="Q" format="2">
  <advance width="5912"/>
  <unicode hex="0051"/>
  <outline>
    <contour>
      <point x="2976" y="-80" type="curve" smooth="yes"/>
      <point x="1320" y="-80"/>
      <point x="352" y="1280"/>
      <point x="352" y="3000" type="curve" smooth="yes"/>
      <point x="352" y="4720"/>
      <point x="1400" y="6080"/>
      <point x="2976" y="6080" type="curve" smooth="yes"/>
      <point x="4552" y="6080"/>
      <point x="5600" y="4720"/>
      <point x="5600" y="3000" type="curve" smooth="yes"/>
      <point x="5600" y="1280"/>
      <point x="4632" y="-80"/>
    </contour>
    <contour>
      <point x="2976" y="6064" type="curve" smooth="yes"/>
      <point x="1776" y="6064"/>
      <point x="1464" y="4536"/>
      <point x="1464" y="3000" type="curve" smooth="yes"/>
      <point x="1464" y="1464"/>
      <point x="1696" y="-64"/>
      <point x="2976" y="-64" type="curve" smooth="yes"/>
      <point x="4256" y="-64"/>
      <point x="4488" y="1464"/>
      <point x="4488" y="3000" type="curve" smooth="yes"/>
      <point x="4488" y="4536"/>
      <point x="4176" y="6064"/>
    </contour>
    <contour>
      <point x="4432" y="-1984" type="curve"/>
      <point x="4432" y="-2000" type="line"/>
      <point x="2616" y="-2000"/>
      <point x="2400" y="-1464"/>
      <point x="2400" y="0" type="curve"/>
      <point x="2784" y="-104"/>
      <point x="3136" y="-104"/>
      <point x="3512" y="0" type="curve"/>
      <point x="3512" y="-1456"/>
      <point x="3584" y="-1984"/>
    </contour>
  </outline>
</glyph>
<glyph name="R" format="2">
  <advance width="2945"/>
  <unicode hex="0052"/>
  <outline>
    <contour>
      <point x="1464.25" y="1572" type="curve" smooth="yes"/>
      <point x="809.25" y="1572" type="line"/>
      <point x="809.25" y="1582" type="line"/>
      <point x="1413.25" y="1582" type="line" smooth="yes"/>
      <point x="1807.25" y="1582"/>
      <point x="2017.25" y="1847.5"/>
      <point x="2017.25" y="2314" type="curve" smooth="yes"/>
      <point x="2017.25" y="2780.5"/>
      <point x="1807.25" y="3064"/>
      <point x="1413.25" y="3064" type="curve" smooth="yes"/>
      <point x="71.75" y="3064" type="line"/>
      <point x="71.75" y="3072" type="line"/>
      <point x="1464.25" y="3072" type="line" smooth="yes"/>
      <point x="2113.25" y="3072"/>
      <point x="2549.75" y="2846"/>
      <point x="2549.75" y="2314" type="curve" smooth="yes"/>
      <point x="2549.75" y="1782"/>
      <point x="2154.75" y="1572"/>
    </contour>
    <contour>
      <point x="71.75" y="8" type="line"/>
      <point x="1443.75" y="8" type="line"/>
      <point x="1443.75" y="0" type="line"/>
      <point x="71.75" y="0" type="line"/>
    </contour>
    <contour>
      <point x="501.25" y="3072" type="line"/>
      <point x="1013.75" y="3072" type="line"/>
      <point x="1013.75" y="0" type="line"/>
      <point x="501.25" y="0" type="line"/>
    </contour>
    <contour>
      <point x="2897.75" y="50" type="line"/>
      <point x="2831.75" y="14"/>
      <point x="2681.25" y="-25"/>
      <point x="2468.25" y="-25" type="curve" smooth="yes"/>
      <point x="1432.25" y="-25"/>
      <point x="2411.25" y="1572"/>
      <point x="1403.25" y="1572" type="curve" smooth="yes"/>
      <point x="809.25" y="1572" type="line"/>
      <point x="809.25" y="1582" type="line"/>
      <point x="1608.25" y="1582" type="line" smooth="yes"/>
      <point x="2981.75" y="1582"/>
      <point x="2163.25" y="2"/>
      <point x="2667.25" y="2" type="curve" smooth="yes"/>
      <point x="2753.25" y="2"/>
      <point x="2835.75" y="26"/>
      <point x="2893.75" y="54" type="curve"/>
    </contour>
  </outline>
</glyph>
<glyph name="S" format="2">
  <advance width="2369"/>
  <unicode hex="0053"/>
  <outline>
    <contour>
      <point x="2043" y="2233" type="curve"/>
      <point x="2033.5" y="2233" type="line"/>
      <point x="1910.5" y="2804"/>
      <point x="1589" y="3098"/>
      <point x="1129.5" y="3098" type="curve" smooth="yes"/>
      <point x="766.5" y="3098"/>
      <point x="578.5" y="2884"/>
      <point x="578.5" y="2580.5" type="curve" smooth="yes"/>
      <point x="578.5" y="1853.5"/>
      <point x="2207" y="2017"/>
      <point x="2207" y="850.5" type="curve" smooth="yes"/>
      <point x="2207" y="298"/>
      <point x="1802" y="-62"/>
      <point x="1224" y="-62" type="curve" smooth="yes"/>
      <point x="586" y="-62"/>
      <point x="308" y="367.5"/>
      <point x="179" y="859.5" type="curve"/>
      <point x="188" y="859.5" type="line"/>
      <point x="314" y="370.5"/>
      <point x="598" y="-51"/>
      <point x="1200" y="-51" type="curve" smooth="yes"/>
      <point x="1613.5" y="-51"/>
      <point x="1879" y="198.5"/>
      <point x="1879" y="603.5" type="curve" smooth="yes"/>
      <point x="1879" y="1412.5"/>
      <point x="220.5" y="1199.5"/>
      <point x="220.5" y="2325" type="curve" smooth="yes"/>
      <point x="220.5" y="2806"/>
      <point x="635" y="3112"/>
      <point x="1099.5" y="3112" type="curve" smooth="yes"/>
      <point x="1593.5" y="3112"/>
      <point x="1920" y="2811"/>
    </contour>
    <contour>
      <point x="2035" y="3112" type="line"/>
      <point x="2043" y="3112" type="line"/>
      <point x="2043" y="2233" type="line"/>
      <point x="1973" y="2479"/>
      <point x="1896" y="2682.5"/>
      <point x="1733" y="2855.5" type="curve"/>
    </contour>
    <contour>
      <point x="187" y="-40" type="line"/>
      <point x="179" y="-40" type="line"/>
      <point x="179" y="859.5" type="line"/>
      <point x="276" y="565"/>
      <point x="355.5" y="399.5"/>
      <point x="494.5" y="241.5" type="curve"/>
    </contour>
  </outline>
</glyph>
<glyph name="T" format="2">
  <advance width="2683"/>
  <unicode hex="0054"/>
  <outline>
    <contour>
      <point x="635.25" y="8" type="line"/>
      <point x="2048.25" y="8" type="line"/>
      <point x="2048.25" y="0" type="line"/>
      <point x="635.25" y="0" type="line"/>
    </contour>
    <contour>
      <point x="1085.25" y="3071" type="line"/>
      <point x="1598.25" y="3071" type="line"/>
      <point x="1598.25" y="0" type="line"/>
      <point x="1085.25" y="0" type="line"/>
    </contour>
    <contour>
      <point x="1934.75" y="3064" type="curve" smooth="yes"/>
      <point x="747.25" y="3064" type="line" smooth="yes"/>
      <point x="287.75" y="3064"/>
      <point x="110.25" y="2639.5"/>
      <point x="79.75" y="2119.5" type="curve"/>
      <point x="71.75" y="2119.5" type="line"/>
      <point x="71.75" y="3072" type="line"/>
      <point x="2611.75" y="3072" type="line"/>
      <point x="2611.75" y="2119.5" type="line"/>
      <point x="2602.25" y="2119.5" type="line"/>
      <point x="2571.75" y="2639.5"/>
      <point x="2394.25" y="3064"/>
    </contour>
  </outline>
</glyph>
<glyph name="U" format="2">
  <advance width="5640"/>
  <unicode hex="0055"/>
  <outline>
    <contour>
      <point x="3968" y="6000" type="line"/>
      <point x="5528" y="6000" type="line"/>
      <point x="5528" y="5984" type="line"/>
      <point x="3968" y="5984" type="line"/>
    </contour>
    <contour>
      <point x="152" y="6000" type="line"/>
      <point x="2624" y="6000" type="line"/>
      <point x="2624" y="5984" type="line"/>
      <point x="152" y="5984" type="line"/>
    </contour>
    <contour>
      <point x="4720" y="6000" type="line"/>
      <point x="4736" y="6000" type="line"/>
      <point x="4736" y="1840" type="line" smooth="yes"/>
      <point x="4736" y="520"/>
      <point x="4216" y="-120"/>
      <point x="2936" y="-120" type="curve" smooth="yes"/>
      <point x="1504" y="-120"/>
      <point x="872" y="456"/>
      <point x="872" y="1840" type="curve" smooth="yes"/>
      <point x="872" y="6000" type="line"/>
      <point x="1824" y="6000" type="line"/>
      <point x="1824" y="1920" type="line" smooth="yes"/>
      <point x="1824" y="864"/>
      <point x="2048" y="-64"/>
      <point x="3152" y="-64" type="curve" smooth="yes"/>
      <point x="4176" y="-64"/>
      <point x="4720" y="536"/>
      <point x="4720" y="1840" type="curve" smooth="yes"/>
    </contour>
  </outline>
</glyph>
<glyph name="V" format="2">
  <advance width="743"/>
  <unicode hex="0056"/>
  <outline>
    <contour>
      <point x="734" y="748" type="line"/>
      <point x="514" y="748" type="line"/>
      <point x="514" y="750" type="line"/>
      <point x="734" y="750" type="line"/>
    </contour>
    <contour>
      <point x="332" y="748" type="line"/>
      <point x="14" y="748" type="line"/>
      <point x="14" y="750" type="line"/>
      <point x="332" y="750" type="line"/>
    </contour>
    <contour>
      <point x="422" y="135" type="line"/>
      <point x="643" y="750" type="line"/>
      <point x="646" y="750" type="line"/>
      <point x="370" y="-15" type="line"/>
      <point x="349" y="-15" type="line"/>
      <point x="84" y="750" type="line"/>
      <point x="222" y="750" type="line"/>
    </contour>
  </outline>
</glyph>
<glyph name="W" format="2">
  <advance width="8200"/>
  <unicode hex="0057"/>
  <outline>
    <contour>
      <point x="4432" y="3800" type="line"/>
      <point x="2952" y="-80" type="line"/>
      <point x="2808" y="-80" type="line"/>
      <point x="792" y="6000" type="line"/>
      <point x="1840" y="6000" type="line"/>
      <point x="3416" y="1216" type="line"/>
      <point x="4464" y="3952" type="line"/>
    </contour>
    <contour>
      <point x="4712" y="3768" type="line"/>
      <point x="4704" y="3816" type="line"/>
      <point x="5472" y="6000" type="line"/>
      <point x="5496" y="6000" type="line"/>
    </contour>
    <contour>
      <point x="8128" y="5984" type="line"/>
      <point x="6528" y="5984" type="line"/>
      <point x="6528" y="6000" type="line"/>
      <point x="8128" y="6000" type="line"/>
    </contour>
    <contour>
      <point x="4064" y="6000" type="line"/>
      <point x="5632" y="1216" type="line"/>
      <point x="7400" y="6000" type="line"/>
      <point x="7416" y="6000" type="line"/>
      <point x="5176" y="-80" type="line"/>
      <point x="5088" y="-80" type="line"/>
      <point x="3072" y="6000" type="line"/>
    </contour>
    <contour>
      <point x="6144" y="5984" type="line"/>
      <point x="112" y="5984" type="line"/>
      <point x="112" y="6000" type="line"/>
      <point x="6144" y="6000" type="line"/>
    </contour>
  </outline>
</glyph>
<glyph name="X" format="2">
  <advance width="3111"/>
  <unicode hex="0058"/>
  <outline>
    <contour>
      <point x="1564.5" y="1544" type="line"/>
      <point x="1552.5" y="1544" type="line"/>
      <point x="2466.5" y="3064" type="line"/>
      <point x="2479" y="3064" type="line"/>
    </contour>
    <contour>
      <point x="506.5" y="0" type="line"/>
      <point x="494.5" y="0" type="line"/>
      <point x="1582.5" y="1708" type="line"/>
      <point x="1595.5" y="1708" type="line"/>
    </contour>
    <contour>
      <point x="1800.5" y="8" type="line"/>
      <point x="3071" y="8" type="line"/>
      <point x="3071" y="0" type="line"/>
      <point x="1800.5" y="0" type="line"/>
    </contour>
    <contour>
      <point x="40" y="8" type="line"/>
      <point x="1022.5" y="8" type="line"/>
      <point x="1022.5" y="0" type="line"/>
      <point x="40" y="0" type="line"/>
    </contour>
    <contour>
      <point x="1453" y="3064" type="line"/>
      <point x="182.5" y="3064" type="line"/>
      <point x="182.5" y="3072" type="line"/>
      <point x="1453" y="3072" type="line"/>
    </contour>
    <contour>
      <point x="2845.5" y="3064" type="line"/>
      <point x="1945" y="3064" type="line"/>
      <point x="1945" y="3072" type="line"/>
      <point x="2845.5" y="3072" type="line"/>
    </contour>
    <contour>
      <point x="2809" y="0" type="line"/>
      <point x="2194.5" y="0" type="line"/>
      <point x="428.5" y="3072" type="line"/>
      <point x="1027" y="3072" type="line"/>
    </contour>
  </outline>
</glyph>
<glyph name="Y" format="2">
  <advance width="5760"/>
  <unicode hex="0059"/>
  <outline>
    <contour>
      <point x="5688" y="5984" type="line"/>
      <point x="4008" y="5984" type="line"/>
      <point x="4008" y="6000" type="line"/>
      <point x="5688" y="6000" type="line"/>
    </contour>
    <contour>
      <point x="2624" y="5984" type="line"/>
      <point x="112" y="5984" type="line"/>
      <point x="112" y="6000" type="line"/>
      <point x="2624" y="6000" type="line"/>
    </contour>
    <contour>
      <point x="1784" y="16" type="line"/>
      <point x="4256" y="16" type="line"/>
      <point x="4256" y="0" type="line"/>
      <point x="1784" y="0" type="line"/>
    </contour>
    <contour>
      <point x="3440" y="3080" type="line"/>
      <point x="4944" y="5984" type="line"/>
      <point x="4968" y="5984" type="line"/>
      <point x="3456" y="3064" type="line"/>
      <point x="3456" y="0" type="line"/>
      <point x="2504" y="0" type="line"/>
      <point x="2504" y="2880" type="line"/>
      <point x="656" y="6000" type="line"/>
      <point x="1760" y="6000" type="line"/>
    </contour>
  </outline>
</glyph>
<glyph name="Z" format="2">
  <advance width="582"/>
  <unicode hex="005A"/>
  <outline>
    <contour>
      <point x="34" y="750" type="line"/>
      <point x="538" y="750" type="line"/>
      <point x="538" y="748" type="line"/>
      <point x="147" y="2" type="line"/>
      <point x="356" y="2" type="line" smooth="yes"/>
      <point x="493" y="2"/>
      <point x="538" y="69"/>
      <point x="546" y="196" type="curve"/>
      <point x="548" y="196" type="line"/>
      <point x="548" y="0" type="line"/>
      <point x="14" y="0" type="line"/>
      <point x="14" y="2" type="line"/>
      <point x="405" y="748" type="line"/>
      <point x="226" y="748" type="line" smooth="yes"/>
      <point x="89" y="748"/>
      <point x="44" y="681"/>
      <point x="36" y="574" type="curve"/>
      <point x="34" y="574" type="line"/>
    </contour>
  </outline>
</glyph>
<glyph name="bracketleft" format="2">
  <advance width="337"/>
  <unicode hex="005B"/>
  <outline>
    <contour>
      <point x="307" y="-150" type="line"/>
      <point x="55" y="-150" type="line"/>
      <point x="55" y="-148" type="line"/>
      <point x="307" y="-148" type="line"/>
    </contour>
    <contour>
      <point x="307" y="778" type="line"/>
      <point x="55" y="778" type="line"/>
      <point x="55" y="780" type="line"/>
      <point x="307" y="780" type="line"/>
    </contour>
    <contour>
      <point x="169" y="780" type="line"/>
      <point x="169" y="-150" type="line"/>
      <point x="55" y="-150" type="line"/>
      <point x="55" y="780" type="line"/>
    </contour>
  </outline>
</glyph>
<glyph name="grave" format="2">
  <advance width="401"/>
  <unicode hex="0060"/>
  <outline>
    <contour>
      <point x="102" y="713" type="line" smooth="yes"/>
      <point x="77" y="711"/>
      <point x="55" y="730"/>
      <point x="55" y="755" type="curve" smooth="yes"/>
      <point x="55" y="780"/>
      <point x="80" y="807"/>
      <point x="112" y="796" type="curve" smooth="yes"/>
      <point x="342" y="723" type="line"/>
      <point x="341" y="721" type="line"/>
    </contour>
  </outline>
</glyph>
<glyph name="a" format="2">
  <advance width="2246"/>
  <unicode hex="0061"/>
  <outline>
    <contour>
      <point x="2246.5" y="258" type="line"/>
      <point x="2152.5" y="54"/>
      <point x="1960.5" y="-40"/>
      <point x="1753.5" y="-40" type="curve" smooth="yes"/>
      <point x="1530.5" y="-40"/>
      <point x="1324.5" y="28"/>
      <point x="1324.5" y="310" type="curve" smooth="yes"/>
      <point x="1324.5" y="1250" type="line" smooth="yes"/>
      <point x="1324.5" y="1544.5"/>
      <point x="1268.5" y="1897"/>
      <point x="951" y="1897" type="curve" smooth="yes"/>
      <point x="701.5" y="1897"/>
      <point x="493" y="1797"/>
      <point x="410" y="1706" type="curve"/>
      <point x="677.5" y="1814.5"/>
      <point x="854" y="1660"/>
      <point x="854" y="1497.5" type="curve" smooth="yes"/>
      <point x="854" y="1323.5"/>
      <point x="694" y="1233"/>
      <point x="561" y="1233" type="curve" smooth="yes"/>
      <point x="408" y="1233"/>
      <point x="297.5" y="1331.5"/>
      <point x="297.5" y="1489.5" type="curve" smooth="yes"/>
      <point x="297.5" y="1748.5"/>
      <point x="654" y="1916"/>
      <point x="1046.5" y="1916" type="curve" smooth="yes"/>
      <point x="1691.5" y="1916"/>
      <point x="1796.5" y="1602.5"/>
      <point x="1796.5" y="1250" type="curve" smooth="yes"/>
      <point x="1796.5" y="173" type="line" smooth="yes"/>
      <point x="1796.5" y="76"/>
      <point x="1846" y="14.5"/>
      <point x="1944" y="14.5" type="curve" smooth="yes"/>
      <point x="2014" y="14.5"/>
      <point x="2157.5" y="86"/>
      <point x="2238.5" y="258" type="curve"/>
    </contour>
    <contour>
      <point x="1050" y="1032" type="curve" smooth="yes"/>
      <point x="1538" y="1032" type="line"/>
      <point x="1538" y="1024" type="line"/>
      <point x="1121.5" y="1024" type="line" smooth="yes"/>
      <point x="840.5" y="1024"/>
      <point x="674" y="777"/>
      <point x="674" y="493" type="curve" smooth="yes"/>
      <point x="674" y="229"/>
      <point x="767" y="60.5"/>
      <point x="930.5" y="60.5" type="curve" smooth="yes"/>
      <point x="1137.5" y="60.5"/>
      <point x="1324.5" y="236.5"/>
      <point x="1324.5" y="742" type="curve"/>
      <point x="1334" y="742" type="line"/>
      <point x="1334" y="234"/>
      <point x="1160" y="-40"/>
      <point x="706" y="-40" type="curve" smooth="yes"/>
      <point x="382" y="-40"/>
      <point x="153.5" y="158"/>
      <point x="153.5" y="462" type="curve" smooth="yes"/>
      <point x="153.5" y="806"/>
      <point x="438" y="1032"/>
    </contour>
  </outline>
</glyph>
<glyph name="b" format="2">
  <advance width="591"/>
  <unicode hex="0062"/>
  <outline>
    <contour>
      <point x="188" y="230" type="curve" smooth="yes"/>
      <point x="188" y="382"/>
      <point x="245" y="469"/>
      <point x="346" y="469" type="curve" smooth="yes"/>
      <point x="455" y="469"/>
      <point x="558" y="380"/>
      <point x="558" y="230" type="curve" smooth="yes"/>
      <point x="558" y="80"/>
      <point x="455" y="-10"/>
      <point x="346" y="-10" type="curve" smooth="yes"/>
      <point x="245" y="-10"/>
      <point x="188" y="78"/>
    </contour>
    <contour>
      <point x="190" y="230" type="curve" smooth="yes"/>
      <point x="190" y="76"/>
      <point x="253" y="-1"/>
      <point x="325" y="-1" type="curve" smooth="yes"/>
      <point x="399" y="-1"/>
      <point x="431" y="92"/>
      <point x="431" y="230" type="curve" smooth="yes"/>
      <point x="431" y="368"/>
      <point x="399" y="460"/>
      <point x="325" y="460" type="curve" smooth="yes"/>
      <point x="253" y="460"/>
      <point x="190" y="384"/>
    </contour>
    <contour>
      <point x="80" y="748" type="line"/>
      <point x="18" y="748" type="line"/>
      <point x="18" y="750" type="line"/>
      <point x="190" y="750" type="line"/>
      <point x="190" y="0" type="line"/>
      <point x="18" y="0" type="line"/>
      <point x="18" y="2" type="line"/>
      <point x="80" y="2" type="line"/>
    </contour>
  </outline>
</glyph>
<glyph name="c" format="2">
  <advance width="3952"/>
  <unicode hex="0063"/>
  <outline>
    <contour>
      <point x="3536" y="2928" type="curve"/>
      <point x="3424" y="3416"/>
      <point x="2888" y="3736"/>
      <point x="2304" y="3736" type="curve" smooth="yes"/>
      <point x="1432" y="3736"/>
      <point x="1296" y="2592"/>
      <point x="1296" y="1840" type="curve" smooth="yes"/>
      <point x="1296" y="928"/>
      <point x="1464" y="-40"/>
      <point x="2256" y="-40" type="curve" smooth="yes"/>
      <point x="2968" y="-40"/>
      <point x="3408" y="456"/>
      <point x="3624" y="1144" type="curve"/>
      <point x="3640" y="1144" type="line"/>
      <point x="3432" y="448"/>
      <point x="2992" y="-80"/>
      <point x="2152" y="-80" type="curve" smooth="yes"/>
      <point x="1056" y="-80"/>
      <point x="264" y="608"/>
      <point x="264" y="1840" type="curve" smooth="yes"/>
      <point x="264" y="2912"/>
      <point x="944" y="3760"/>
      <point x="2200" y="3760" type="curve" smooth="yes"/>
      <point x="3032" y="3760"/>
      <point x="3600" y="3296"/>
      <point x="3600" y="2704" type="curve" smooth="yes"/>
      <point x="3600" y="2344"/>
      <point x="3360" y="2152"/>
      <point x="3072" y="2152" type="curve" smooth="yes"/>
      <point x="2824" y="2152"/>
      <point x="2536" y="2296"/>
      <point x="2536" y="2672" type="curve" smooth="yes"/>
      <point x="2536" y="3000"/>
      <point x="2808" y="3176"/>
      <point x="3056" y="3176" type="curve" smooth="yes"/>
      <point x="3288" y="3176"/>
      <point x="3480" y="3048"/>
    </contour>
  </outline>
</glyph>
<glyph name="d" format="2">
  <advance width="2438"/>
  <unicode hex="0064"/>
  <outline>
    <contour>
      <point x="1648" y="941" type="curve" smooth="yes"/>
      <point x="1648" y="319"/>
      <point x="1418.5" y="-37"/>
      <point x="1001.5" y="-37" type="curve" smooth="yes"/>
      <point x="555.5" y="-37"/>
      <point x="133.5" y="327"/>
      <point x="133.5" y="941" type="curve" smooth="yes"/>
      <point x="133.5" y="1555"/>
      <point x="555.5" y="1925"/>
      <point x="1001.5" y="1925" type="curve" smooth="yes"/>
      <point x="1417.5" y="1925"/>
      <point x="1648" y="1563"/>
    </contour>
    <contour>
      <point x="1640" y="941" type="curve" smooth="yes"/>
      <point x="1640" y="1571"/>
      <point x="1385.5" y="1886"/>
      <point x="1094.5" y="1886" type="curve" smooth="yes"/>
      <point x="801.5" y="1886"/>
      <point x="676.5" y="1509.5"/>
      <point x="676.5" y="941" type="curve" smooth="yes"/>
      <point x="676.5" y="372.5"/>
      <point x="801.5" y="0"/>
      <point x="1094.5" y="0" type="curve" smooth="yes"/>
      <point x="1385.5" y="0"/>
      <point x="1640" y="311"/>
    </contour>
    <contour>
      <point x="2368" y="8" type="line"/>
      <point x="2368" y="0" type="line"/>
      <point x="1640" y="0" type="line"/>
      <point x="1640" y="3064" type="line"/>
      <point x="1384" y="3064" type="line"/>
      <point x="1384" y="3072" type="line"/>
      <point x="2112" y="3072" type="line"/>
      <point x="2112" y="8" type="line"/>
    </contour>
  </outline>
</glyph>
<glyph name="e" format="2">
  <advance width="509"/>
  <unicode hex="0065"/>
  <outline>
    <contour>
      <point x="100" y="260" type="line"/>
      <point x="100" y="262" type="line"/>
      <point x="357" y="262" type="line"/>
      <point x="358" y="344"/>
      <point x="347" y="468"/>
      <point x="268" y="468" type="curve" smooth="yes"/>
      <point x="181" y="468"/>
      <point x="158" y="348"/>
      <point x="158" y="234" type="curve" smooth="yes"/>
      <point x="158" y="114"/>
      <point x="182" y="-6"/>
      <point x="285" y="-6" type="curve" smooth="yes"/>
      <point x="386" y="-6"/>
      <point x="454" y="60"/>
      <point x="479" y="143" type="curve"/>
      <point x="481" y="143" type="line"/>
      <point x="455" y="56"/>
      <point x="386" y="-10"/>
      <point x="271" y="-10" type="curve" smooth="yes"/>
      <point x="136" y="-10"/>
      <point x="33" y="78"/>
      <point x="33" y="230" type="curve" smooth="yes"/>
      <point x="33" y="382"/>
      <point x="133" y="470"/>
      <point x="268" y="470" type="curve" smooth="yes"/>
      <point x="417" y="470"/>
      <point x="480" y="369"/>
      <point x="480" y="260" type="curve"/>
    </contour>
  </outline>
</glyph>
<glyph name="f" format="2">
  <advance width="2912"/>
  <unicode hex="0066"/>
  <outline>
    <contour>
      <point x="104" y="16" type="line"/>
      <point x="2520" y="16" type="line"/>
      <point x="2520" y="0" type="line"/>
      <point x="104" y="0" type="line"/>
    </contour>
    <contour>
      <point x="104" y="3680" type="line"/>
      <point x="2680" y="3680" type="line"/>
      <point x="2680" y="3664" type="line"/>
      <point x="104" y="3664" type="line"/>
    </contour>
    <contour>
      <point x="3480" y="5368" type="curve"/>
      <point x="3424" y="5680"/>
      <point x="3128" y="6064"/>
      <point x="2480" y="6064" type="curve" smooth="yes"/>
      <point x="1840" y="6064"/>
      <point x="1624" y="5336"/>
      <point x="1624" y="4320" type="curve" smooth="yes"/>
      <point x="1624" y="0" type="line"/>
      <point x="760" y="0" type="line"/>
      <point x="760" y="4096" type="line" smooth="yes"/>
      <point x="760" y="5176"/>
      <point x="1392" y="6080"/>
      <point x="2480" y="6080" type="curve" smooth="yes"/>
      <point x="3144" y="6080"/>
      <point x="3512" y="5648"/>
      <point x="3512" y="5240" type="curve" smooth="yes"/>
      <point x="3512" y="4880"/>
      <point x="3280" y="4680"/>
      <point x="2992" y="4680" type="curve" smooth="yes"/>
      <point x="2744" y="4680"/>
      <point x="2464" y="4856"/>
      <point x="2464" y="5192" type="curve" smooth="yes"/>
      <point x="2464" y="5528"/>
      <point x="2720" y="5696"/>
      <point x="2992" y="5696" type="curve" smooth="yes"/>
      <point x="3208" y="5696"/>
      <point x="3392" y="5576"/>
    </contour>
  </outline>
</glyph>
<glyph name="g" format="2">
  <advance width="579"/>
  <unicode hex="0067"/>
  <outline>
    <contour>
      <point x="50" y="70" type="curve" smooth="yes"/>
      <point x="50" y="144"/>
      <point x="153" y="168"/>
      <point x="232" y="168" type="curve"/>
      <point x="232" y="166" type="line"/>
      <point x="189" y="166"/>
      <point x="126" y="150"/>
      <point x="126" y="109" type="curve" smooth="yes"/>
      <point x="126" y="75"/>
      <point x="170" y="75"/>
      <point x="225" y="75" type="curve" smooth="yes"/>
      <point x="260" y="75"/>
      <point x="274" y="76"/>
      <point x="302" y="76" type="curve" smooth="yes"/>
      <point x="377" y="76"/>
      <point x="463" y="54"/>
      <point x="463" y="-82" type="curve" smooth="yes"/>
      <point x="463" y="-203"/>
      <point x="363" y="-260"/>
      <point x="243" y="-260" type="curve" smooth="yes"/>
      <point x="128" y="-260"/>
      <point x="18" y="-222"/>
      <point x="18" y="-129" type="curve" smooth="yes"/>
      <point x="18" y="-40"/>
      <point x="122" y="-17"/>
      <point x="167" y="-17" type="curve" smooth="yes"/>
      <point x="169" y="-17" type="line"/>
      <point x="128" y="-40"/>
      <point x="123" y="-78"/>
      <point x="123" y="-106" type="curve" smooth="yes"/>
      <point x="123" y="-178"/>
      <point x="161" y="-257"/>
      <point x="253" y="-257" type="curve" smooth="yes"/>
      <point x="352" y="-257"/>
      <point x="448" y="-205"/>
      <point x="448" y="-114" type="curve" smooth="yes"/>
      <point x="448" y="-44"/>
      <point x="372" y="-19"/>
      <point x="307" y="-19" type="curve" smooth="yes"/>
      <point x="284" y="-19"/>
      <point x="231" y="-19"/>
      <point x="209" y="-19" type="curve" smooth="yes"/>
      <point x="119" y="-19"/>
      <point x="50" y="2"/>
    </contour>
    <contour>
      <point x="158" y="315" type="curve" smooth="yes"/>
      <point x="158" y="237"/>
      <point x="163" y="168"/>
      <point x="232" y="168" type="curve" smooth="yes"/>
      <point x="283" y="168"/>
      <point x="306" y="237"/>
      <point x="306" y="315" type="curve" smooth="yes"/>
      <point x="306" y="393"/>
      <point x="283" y="468"/>
      <point x="232" y="468" type="curve" smooth="yes"/>
      <point x="181" y="468"/>
      <point x="158" y="393"/>
    </contour>
    <contour>
      <point x="43" y="315" type="curve" smooth="yes"/>
      <point x="43" y="425"/>
      <point x="145" y="470"/>
      <point x="232" y="470" type="curve" smooth="yes"/>
      <point x="319" y="470"/>
      <point x="421" y="425"/>
      <point x="421" y="315" type="curve" smooth="yes"/>
      <point x="421" y="205"/>
      <point x="319" y="166"/>
      <point x="232" y="166" type="curve" smooth="yes"/>
      <point x="145" y="166"/>
      <point x="43" y="205"/>
    </contour>
    <contour>
      <point x="564" y="397" type="curve"/>
      <point x="561" y="429"/>
      <point x="534" y="463"/>
      <point x="480" y="463" type="curve" smooth="yes"/>
      <point x="434" y="463"/>
      <point x="374" y="434"/>
      <point x="354" y="347" type="curve"/>
      <point x="352" y="347" type="line"/>
      <point x="372" y="438"/>
      <point x="436" y="465"/>
      <point x="480" y="465" type="curve" smooth="yes"/>
      <point x="537" y="465"/>
      <point x="566" y="427"/>
      <point x="566" y="389" type="curve" smooth="yes"/>
      <point x="566" y="340"/>
      <point x="537" y="324"/>
      <point x="510" y="324" type="curve" smooth="yes"/>
      <point x="483" y="324"/>
      <point x="455" y="342"/>
      <point x="455" y="379" type="curve" smooth="yes"/>
      <point x="455" y="409"/>
      <point x="479" y="431"/>
      <point x="510" y="431" type="curve" smooth="yes"/>
      <point x="534" y="431"/>
      <point x="559" y="416"/>
    </contour>
  </outline>
</glyph>
<glyph name="i" format="2">
  <advance width="2208"/>
  <unicode hex="0069"/>
  <outline>
    <contour>
      <point x="184" y="16" type="line"/>
      <point x="2056" y="16" type="line"/>
      <point x="2056" y="0" type="line"/>
      <point x="184" y="0" type="line"/>
    </contour>
    <contour>
      <point x="480" y="5520" type="curve" smooth="yes"/>
      <point x="480" y="5832"/>
      <point x="728" y="6080"/>
      <point x="1040" y="6080" type="curve" smooth="yes"/>
      <point x="1352" y="6080"/>
      <point x="1600" y="5832"/>
      <point x="1600" y="5520" type="curve" smooth="yes"/>
      <point x="1600" y="5208"/>
      <point x="1352" y="4960"/>
      <point x="1040" y="4960" type="curve" smooth="yes"/>
      <point x="728" y="4960"/>
      <point x="480" y="5208"/>
    </contour>
    <contour>
      <point x="680" y="3664" type="line"/>
      <point x="184" y="3664" type="line"/>
      <point x="184" y="3680" type="line"/>
      <point x="1560" y="3680" type="line"/>
      <point x="1560" y="0" type="line"/>
      <point x="680" y="0" type="line"/>
    </contour>
  </outline>
</glyph>
<glyph name="j" format="2">
  <advance width="1184"/>
  <unicode hex="006A"/>
  <outline>
    <contour>
      <point x="316" y="2816.5" type="curve" smooth="yes"/>
      <point x="316" y="2983"/>
      <point x="446.5" y="3112"/>
      <point x="613" y="3112" type="curve" smooth="yes"/>
      <point x="779.5" y="3112"/>
      <point x="908.5" y="2983"/>
      <point x="908.5" y="2816.5" type="curve" smooth="yes"/>
      <point x="908.5" y="2650"/>
      <point x="779.5" y="2519.5"/>
      <point x="613" y="2519.5" type="curve" smooth="yes"/>
      <point x="446.5" y="2519.5"/>
      <point x="316" y="2650"/>
    </contour>
    <contour>
      <point x="880.5" y="1884" type="line"/>
      <point x="880.5" y="-50" type="line" smooth="yes"/>
      <point x="880.5" y="-586"/>
      <point x="668" y="-1064"/>
      <point x="115.5" y="-1064" type="curve" smooth="yes"/>
      <point x="-237" y="-1064"/>
      <point x="-450" y="-849"/>
      <point x="-450" y="-596.5" type="curve" smooth="yes"/>
      <point x="-450" y="-409"/>
      <point x="-316.5" y="-302.5"/>
      <point x="-166.5" y="-302.5" type="curve" smooth="yes"/>
      <point x="-33.5" y="-302.5"/>
      <point x="114.5" y="-381"/>
      <point x="114.5" y="-565.5" type="curve" smooth="yes"/>
      <point x="114.5" y="-745"/>
      <point x="-14" y="-836.5"/>
      <point x="-189.5" y="-836.5" type="curve" smooth="yes"/>
      <point x="-324.5" y="-836.5"/>
      <point x="-421" y="-735"/>
      <point x="-439" y="-632.5" type="curve"/>
      <point x="-435" y="-843"/>
      <point x="-228" y="-1050"/>
      <point x="78.5" y="-1050" type="curve" smooth="yes"/>
      <point x="477.5" y="-1050"/>
      <point x="405" y="-435"/>
      <point x="405" y="85" type="curve" smooth="yes"/>
      <point x="410" y="1876" type="line"/>
      <point x="71.5" y="1876" type="line"/>
      <point x="71.5" y="1884" type="line"/>
    </contour>
  </outline>
</glyph>
<glyph name="k" format="2">
  <advance width="4720"/>
  <unicode hex="006B"/>
  <outline>
    <contour>
      <point x="4352" y="0" type="line"/>
      <point x="3256" y="0" type="line"/>
      <point x="1552" y="2104" type="line"/>
      <point x="3632" y="3680" type="line"/>
      <point x="3656" y="3680" type="line"/>
      <point x="2232" y="2584" type="line"/>
    </contour>
    <contour>
      <point x="2680" y="16" type="line"/>
      <point x="4656" y="16" type="line"/>
      <point x="4656" y="0" type="line"/>
      <point x="2680" y="0" type="line"/>
    </contour>
    <contour>
      <point x="4336" y="3664" type="line"/>
      <point x="2680" y="3664" type="line"/>
      <point x="2680" y="3680" type="line"/>
      <point x="4336" y="3680" type="line"/>
    </contour>
    <contour>
      <point x="144" y="16" type="line"/>
      <point x="2192" y="16" type="line"/>
      <point x="2192" y="0" type="line"/>
      <point x="144" y="0" type="line"/>
    </contour>
    <contour>
      <point x="800" y="5984" type="line"/>
      <point x="144" y="5984" type="line"/>
      <point x="144" y="6000" type="line"/>
      <point x="1680" y="6000" type="line"/>
      <point x="1680" y="0" type="line"/>
      <point x="800" y="0" type="line"/>
    </contour>
  </outline>
</glyph>
<glyph name="l" format="2">
  <advance width="310"/>
  <unicode hex="006C"/>
  <outline>
    <contour>
      <point x="18" y="2" type="line"/>
      <point x="292" y="2" type="line"/>
      <point x="292" y="0" type="line"/>
      <point x="18" y="0" type="line"/>
    </contour>
    <contour>
      <point x="100" y="748" type="line"/>
      <point x="18" y="748" type="line"/>
      <point x="18" y="750" type="line"/>
      <point x="210" y="750" type="line"/>
      <point x="210" y="0" type="line"/>
      <point x="100" y="0" type="line"/>
    </contour>
  </outline>
</glyph>
<glyph name="m" format="2">
  <advance width="3460"/>
  <unicode hex="006D"/>
  <outline>
    <contour>
      <point x="1966.5" y="1306" type="curve" smooth="yes"/>
      <point x="1966.5" y="0" type="line"/>
      <point x="1496" y="0" type="line"/>
      <point x="1496" y="1282.5" type="line" smooth="yes"/>
      <point x="1496" y="1626.5"/>
      <point x="1479.5" y="1863"/>
      <point x="1288.5" y="1863" type="curve" smooth="yes"/>
      <point x="872.5" y="1863"/>
      <point x="798.5" y="1295.5"/>
      <point x="798.5" y="914" type="curve"/>
      <point x="790.5" y="897.5" type="line"/>
      <point x="790.5" y="1295.5"/>
      <point x="838.5" y="1926"/>
      <point x="1409.5" y="1926" type="curve" smooth="yes"/>
      <point x="1831.5" y="1926"/>
      <point x="1966.5" y="1662"/>
    </contour>
    <contour>
      <point x="71.5" y="8" type="line"/>
      <point x="1019" y="8" type="line"/>
      <point x="1019" y="0" type="line"/>
      <point x="71.5" y="0" type="line"/>
    </contour>
    <contour>
      <point x="1275.5" y="8" type="line"/>
      <point x="2186.5" y="8" type="line"/>
      <point x="2186.5" y="0" type="line"/>
      <point x="1275.5" y="0" type="line"/>
    </contour>
    <contour>
      <point x="2442" y="8" type="line"/>
      <point x="3389" y="8" type="line"/>
      <point x="3389" y="0" type="line"/>
      <point x="2442" y="0" type="line"/>
    </contour>
    <contour>
      <point x="328" y="1876" type="line"/>
      <point x="71.5" y="1876" type="line"/>
      <point x="71.5" y="1884" type="line"/>
      <point x="798.5" y="1884" type="line"/>
      <point x="798.5" y="0" type="line"/>
      <point x="328" y="0" type="line"/>
    </contour>
    <contour>
      <point x="3134" y="1306" type="curve" smooth="yes"/>
      <point x="3134" y="0" type="line"/>
      <point x="2662" y="0" type="line"/>
      <point x="2662" y="1282.5" type="line" smooth="yes"/>
      <point x="2662" y="1626.5"/>
      <point x="2647.5" y="1863"/>
      <point x="2456.5" y="1863" type="curve" smooth="yes"/>
      <point x="2040.5" y="1863"/>
      <point x="1966.5" y="1295.5"/>
      <point x="1966.5" y="914" type="curve"/>
      <point x="1958.5" y="897.5" type="line"/>
      <point x="1958.5" y="1295.5"/>
      <point x="2006.5" y="1926"/>
      <point x="2577.5" y="1926" type="curve" smooth="yes"/>
      <point x="2999.5" y="1926"/>
      <point x="3134" y="1662"/>
    </contour>
  </outline>
</glyph>
<glyph name="n" format="2">
  <advance width="4600"/>
  <unicode hex="006E"/>
  <outline>
    <contour>
      <point x="3080" y="2496" type="line" smooth="yes"/>
      <point x="3080" y="3168"/>
      <point x="3032" y="3656"/>
      <point x="2632" y="3656" type="curve" smooth="yes"/>
      <point x="1624" y="3656"/>
      <point x="1520" y="2496"/>
      <point x="1520" y="1784" type="curve"/>
      <point x="1504" y="1752" type="line"/>
      <point x="1504" y="2528"/>
      <point x="1584" y="3760"/>
      <point x="2824" y="3760" type="curve" smooth="yes"/>
      <point x="3744" y="3760"/>
      <point x="3960" y="3248"/>
      <point x="3960" y="2552" type="curve" smooth="yes"/>
      <point x="3960" y="0" type="line"/>
      <point x="3080" y="0" type="line"/>
    </contour>
    <contour>
      <point x="2632" y="16" type="line"/>
      <point x="4456" y="16" type="line"/>
      <point x="4456" y="0" type="line"/>
      <point x="2632" y="0" type="line"/>
    </contour>
    <contour>
      <point x="144" y="16" type="line"/>
      <point x="1968" y="16" type="line"/>
      <point x="1968" y="0" type="line"/>
      <point x="144" y="0" type="line"/>
    </contour>
    <contour>
      <point x="640" y="3664" type="line"/>
      <point x="144" y="3664" type="line"/>
      <point x="144" y="3680" type="line"/>
      <point x="1520" y="3680" type="line"/>
      <point x="1520" y="0" type="line"/>
      <point x="640" y="0" type="line"/>
    </contour>
  </outline>
</glyph>
<glyph name="o" format="2">
  <advance width="2278"/>
  <unicode hex="006F"/>
  <outline>
    <contour>
      <point x="693.5" y="942" type="curve" smooth="yes"/>
      <point x="693.5" y="505"/>
      <point x="765.5" y="-32"/>
      <point x="1140" y="-32" type="curve" smooth="yes"/>
      <point x="1514.5" y="-32"/>
      <point x="1586.5" y="505"/>
      <point x="1586.5" y="942" type="curve" smooth="yes"/>
      <point x="1586.5" y="1379"/>
      <point x="1514.5" y="1916"/>
      <point x="1140" y="1916" type="curve" smooth="yes"/>
      <point x="765.5" y="1916"/>
      <point x="693.5" y="1379"/>
    </contour>
    <contour>
      <point x="171" y="942" type="curve" smooth="yes"/>
      <point x="171" y="1474"/>
      <point x="541.5" y="1926"/>
      <point x="1140" y="1926" type="curve" smooth="yes"/>
      <point x="1738.5" y="1926"/>
      <point x="2108.5" y="1474"/>
      <point x="2108.5" y="942" type="curve" smooth="yes"/>
      <point x="2108.5" y="410"/>
      <point x="1738.5" y="-40"/>
      <point x="1140" y="-40" type="curve" smooth="yes"/>
      <point x="541.5" y="-40"/>
      <point x="171" y="410"/>
    </contour>
  </outline>
</glyph>
<glyph name="p" format="2">
  <advance width="591"/>
  <unicode hex="0070"/>
  <outline>
    <contour>
      <point x="188" y="230" type="curve" smooth="yes"/>
      <point x="188" y="382"/>
      <point x="245" y="469"/>
      <point x="346" y="469" type="curve" smooth="yes"/>
      <point x="455" y="469"/>
      <point x="558" y="380"/>
      <point x="558" y="230" type="curve" smooth="yes"/>
      <point x="558" y="80"/>
      <point x="455" y="-10"/>
      <point x="346" y="-10" type="curve" smooth="yes"/>
      <point x="245" y="-10"/>
      <point x="188" y="78"/>
    </contour>
    <contour>
      <point x="190" y="230" type="curve" smooth="yes"/>
      <point x="190" y="76"/>
      <point x="253" y="-1"/>
      <point x="325" y="-1" type="curve" smooth="yes"/>
      <point x="399" y="-1"/>
      <point x="431" y="92"/>
      <point x="431" y="230" type="curve" smooth="yes"/>
      <point x="431" y="368"/>
      <point x="399" y="460"/>
      <point x="325" y="460" type="curve" smooth="yes"/>
      <point x="253" y="460"/>
      <point x="190" y="384"/>
    </contour>
    <contour>
      <point x="18" y="-248" type="line"/>
      <point x="252" y="-248" type="line"/>
      <point x="252" y="-250" type="line"/>
      <point x="18" y="-250" type="line"/>
    </contour>
    <contour>
      <point x="80" y="458" type="line"/>
      <point x="18" y="458" type="line"/>
      <point x="18" y="460" type="line"/>
      <point x="190" y="460" type="line"/>
      <point x="190" y="-250" type="line"/>
      <point x="80" y="-250" type="line"/>
    </contour>
  </outline>
</glyph>
<glyph name="q" format="2">
  <advance width="591"/>
  <unicode hex="0071"/>
  <outline>
    <contour>
      <point x="403" y="230" type="curve" smooth="yes"/>
      <point x="403" y="78"/>
      <point x="346" y="-9"/>
      <point x="245" y="-9" type="curve" smooth="yes"/>
      <point x="136" y="-9"/>
      <point x="33" y="80"/>
      <point x="33" y="230" type="curve" smooth="yes"/>
      <point x="33" y="380"/>
      <point x="136" y="470"/>
      <point x="245" y="470" type="curve" smooth="yes"/>
      <point x="346" y="470"/>
      <point x="403" y="382"/>
    </contour>
    <contour>
      <point x="401" y="230" type="curve" smooth="yes"/>
      <point x="401" y="384"/>
      <point x="338" y="461"/>
      <point x="266" y="461" type="curve" smooth="yes"/>
      <point x="192" y="461"/>
      <point x="160" y="368"/>
      <point x="160" y="230" type="curve" smooth="yes"/>
      <point x="160" y="92"/>
      <point x="192" y="0"/>
      <point x="266" y="0" type="curve" smooth="yes"/>
      <point x="338" y="0"/>
      <point x="401" y="76"/>
    </contour>
    <contour>
      <point x="573" y="-248" type="line"/>
      <point x="573" y="-250" type="line"/>
      <point x="339" y="-250" type="line"/>
      <point x="339" y="-248" type="line"/>
    </contour>
    <contour>
      <point x="573" y="460" type="line"/>
      <point x="573" y="458" type="line"/>
      <point x="511" y="458" type="line"/>
      <point x="511" y="-250" type="line"/>
      <point x="401" y="-250" type="line"/>
      <point x="401" y="460" type="line"/>
    </contour>
  </outline>
</glyph>
<glyph name="r" format="2">
  <advance width="3400"/>
  <unicode hex="0072"/>
  <outline>
    <contour>
      <point x="3296" y="3224" type="curve"/>
      <point x="3184" y="3568"/>
      <point x="2840" y="3744"/>
      <point x="2536" y="3744" type="curve" smooth="yes"/>
      <point x="1616" y="3744"/>
      <point x="1520" y="2712"/>
      <point x="1520" y="1784" type="curve"/>
      <point x="1504" y="1784" type="line"/>
      <point x="1504" y="2760"/>
      <point x="1616" y="3760"/>
      <point x="2536" y="3760" type="curve" smooth="yes"/>
      <point x="2936" y="3760"/>
      <point x="3336" y="3472"/>
      <point x="3336" y="3032" type="curve" smooth="yes"/>
      <point x="3336" y="2720"/>
      <point x="3144" y="2464"/>
      <point x="2792" y="2464" type="curve" smooth="yes"/>
      <point x="2480" y="2464"/>
      <point x="2240" y="2648"/>
      <point x="2240" y="2984" type="curve" smooth="yes"/>
      <point x="2240" y="3536"/>
      <point x="3024" y="3752"/>
    </contour>
    <contour>
      <point x="144" y="16" type="line"/>
      <point x="2016" y="16" type="line"/>
      <point x="2016" y="0" type="line"/>
      <point x="144" y="0" type="line"/>
    </contour>
    <contour>
      <point x="640" y="3664" type="line"/>
      <point x="144" y="3664" type="line"/>
      <point x="144" y="3680" type="line"/>
      <point x="1520" y="3680" type="line"/>
      <point x="1520" y="0" type="line"/>
      <point x="640" y="0" type="line"/>
    </contour>
  </outline>
</glyph>
<glyph name="s" format="2">
  <advance width="1761"/>
  <unicode hex="0073"/>
  <outline>
    <contour>
      <point x="1437" y="1551" type="curve"/>
      <point x="1393.5" y="1627"/>
      <point x="1338" y="1688.5"/>
      <point x="1279" y="1744.5" type="curve"/>
      <point x="1500" y="1926" type="line"/>
      <point x="1508" y="1926" type="line"/>
      <point x="1508" y="1352" type="line"/>
      <point x="1506" y="1352" type="line"/>
      <point x="1493.87" y="1422.72"/>
      <point x="1472.76" y="1490.32"/>
    </contour>
    <contour>
      <point x="1508" y="1352" type="curve"/>
      <point x="1500" y="1352" type="line"/>
      <point x="1459" y="1618"/>
      <point x="1200.5" y="1912"/>
      <point x="809.5" y="1912" type="curve" smooth="yes"/>
      <point x="571.5" y="1912"/>
      <point x="409" y="1800"/>
      <point x="409" y="1622.5" type="curve" smooth="yes"/>
      <point x="409" y="1151"/>
      <point x="1649" y="1342.5"/>
      <point x="1649" y="592" type="curve" smooth="yes"/>
      <point x="1649" y="197"/>
      <point x="1316" y="-40"/>
      <point x="928.5" y="-40" type="curve" smooth="yes"/>
      <point x="532.5" y="-40"/>
      <point x="220" y="212.5"/>
      <point x="159" y="563" type="curve"/>
      <point x="167" y="563" type="line"/>
      <point x="221" y="219.5"/>
      <point x="541.5" y="-29"/>
      <point x="912" y="-29" type="curve" smooth="yes"/>
      <point x="1168" y="-29"/>
      <point x="1390.5" y="77.5"/>
      <point x="1390.5" y="326.5" type="curve" smooth="yes"/>
      <point x="1390.5" y="816"/>
      <point x="202" y="569"/>
      <point x="202" y="1351.5" type="curve" smooth="yes"/>
      <point x="202" y="1644.5"/>
      <point x="416.5" y="1922"/>
      <point x="806.5" y="1922" type="curve" smooth="yes"/>
      <point x="1208.5" y="1922"/>
      <point x="1467" y="1622"/>
    </contour>
    <contour>
      <point x="167" y="-40" type="line"/>
      <point x="159" y="-40" type="line"/>
      <point x="159" y="563" type="line"/>
      <point x="164" y="563" type="line"/>
      <point x="173" y="467"/>
      <point x="209.574" y="394.25"/>
      <point x="242" y="339.5" type="curve"/>
      <point x="297" y="253.5"/>
      <point x="345.5" y="196.5"/>
      <point x="394" y="155" type="curve"/>
    </contour>
  </outline>
</glyph>
<glyph name="t" format="2">
  <advance width="1377"/>
  <unicode hex="0074"/>
  <outline>
    <contour>
      <point x="30" y="1884" type="line"/>
      <point x="1238.5" y="1884" type="line"/>
      <point x="1238.5" y="1876" type="line"/>
      <point x="30" y="1876" type="line"/>
    </contour>
    <contour>
      <point x="1362" y="418" type="line"/>
      <point x="1264" y="156"/>
      <point x="1044" y="-28"/>
      <point x="753" y="-28" type="curve" smooth="yes"/>
      <point x="386.5" y="-28"/>
      <point x="330" y="208"/>
      <point x="330" y="464.5" type="curve" smooth="yes"/>
      <point x="330" y="2294" type="line"/>
      <point x="483" y="2294"/>
      <point x="688" y="2344"/>
      <point x="800.5" y="2416" type="curve"/>
      <point x="800.5" y="315.5" type="line" smooth="yes"/>
      <point x="800.5" y="111.5"/>
      <point x="846" y="45.5"/>
      <point x="956" y="45.5" type="curve" smooth="yes"/>
      <point x="1101.5" y="45.5"/>
      <point x="1267" y="204.5"/>
      <point x="1354" y="418" type="curve"/>
    </contour>
  </outline>
</glyph>
<glyph name="u" format="2">
  <advance width="2374"/>
  <unicode hex="0075"/>
  <outline>
    <contour>
      <point x="798.5" y="1884" type="line"/>
      <point x="798.5" y="601.5" type="line" smooth="yes"/>
      <point x="798.5" y="257.5"/>
      <point x="822" y="21"/>
      <point x="1023" y="21" type="curve" smooth="yes"/>
      <point x="1520" y="21"/>
      <point x="1576" y="604"/>
      <point x="1576" y="970" type="curve"/>
      <point x="1586" y="986.5" type="line"/>
      <point x="1586" y="588.5"/>
      <point x="1542.5" y="-40"/>
      <point x="910" y="-40" type="curve" smooth="yes"/>
      <point x="440.5" y="-40"/>
      <point x="328" y="222"/>
      <point x="328" y="578" type="curve" smooth="yes"/>
      <point x="328" y="1876" type="line"/>
      <point x="71.5" y="1876" type="line"/>
      <point x="71.5" y="1884" type="line"/>
    </contour>
    <contour>
      <point x="2048.5" y="8" type="line"/>
      <point x="2304.5" y="8" type="line"/>
      <point x="2304.5" y="0" type="line"/>
      <point x="1576" y="0" type="line"/>
      <point x="1576" y="1876" type="line"/>
      <point x="1300.5" y="1876" type="line"/>
      <point x="1300.5" y="1884" type="line"/>
      <point x="2048.5" y="1884" type="line"/>
    </contour>
  </outline>
</glyph>
<glyph name="v" format="2">
  <advance width="2312"/>
  <unicode hex="0076"/>
  <outline>
    <contour>
      <point x="2250.5" y="1876" type="line"/>
      <point x="1518" y="1876" type="line"/>
      <point x="1518" y="1884" type="line"/>
      <point x="2250.5" y="1884" type="line"/>
    </contour>
    <contour>
      <point x="1122.5" y="1876" type="line"/>
      <point x="32.5" y="1876" type="line"/>
      <point x="32.5" y="1884" type="line"/>
      <point x="1122.5" y="1884" type="line"/>
    </contour>
    <contour>
      <point x="1325.5" y="454" type="line"/>
      <point x="1915" y="1884" type="line"/>
      <point x="1927.5" y="1884" type="line"/>
      <point x="1136.5" y="-40" type="line"/>
      <point x="1058.5" y="-40" type="line"/>
      <point x="268.5" y="1884" type="line"/>
      <point x="789.5" y="1884" type="line"/>
    </contour>
  </outline>
</glyph>
<glyph name="w" format="2">
  <advance width="6184"/>
  <unicode hex="0077"/>
  <outline>
    <contour>
      <point x="2048" y="3664" type="line"/>
      <point x="-8" y="3664" type="line"/>
      <point x="-8" y="3680" type="line"/>
      <point x="2048" y="3680" type="line"/>
    </contour>
    <contour>
      <point x="6128" y="3664" type="line"/>
      <point x="4544" y="3664" type="line"/>
      <point x="4544" y="3680" type="line"/>
      <point x="6128" y="3680" type="line"/>
    </contour>
    <contour>
      <point x="2216" y="936" type="line"/>
      <point x="3424" y="3760" type="line"/>
      <point x="3656" y="3760" type="line"/>
      <point x="4488" y="1088" type="line"/>
      <point x="5352" y="3680" type="line"/>
      <point x="5376" y="3680" type="line"/>
      <point x="4120" y="-80" type="line"/>
      <point x="3992" y="-80" type="line"/>
      <point x="2984" y="2680" type="line"/>
      <point x="1800" y="-80" type="line"/>
      <point x="1672" y="-80" type="line"/>
      <point x="448" y="3680" type="line"/>
      <point x="1376" y="3680" type="line"/>
    </contour>
  </outline>
</glyph>
<glyph name="x" format="2">
  <advance width="4368"/>
  <unicode hex="0078"/>
  <outline>
    <contour>
      <point x="2464" y="16" type="line"/>
      <point x="4296" y="16" type="line"/>
      <point x="4296" y="0" type="line"/>
      <point x="2464" y="0" type="line"/>
    </contour>
    <contour>
      <point x="72" y="16" type="line"/>
      <point x="1456" y="16" type="line"/>
      <point x="1456" y="0" type="line"/>
      <point x="72" y="0" type="line"/>
    </contour>
    <contour>
      <point x="2120" y="3664" type="line"/>
      <point x="136" y="3664" type="line"/>
      <point x="136" y="3680" type="line"/>
      <point x="2120" y="3680" type="line"/>
    </contour>
    <contour>
      <point x="4184" y="3664" type="line"/>
      <point x="2856" y="3664" type="line"/>
      <point x="2856" y="3680" type="line"/>
      <point x="4184" y="3680" type="line"/>
    </contour>
    <contour>
      <point x="4000" y="0" type="line"/>
      <point x="2944" y="0" type="line"/>
      <point x="512" y="3680" type="line"/>
      <point x="1552" y="3680" type="line"/>
    </contour>
    <contour>
      <point x="632" y="0" type="line"/>
      <point x="608" y="0" type="line"/>
      <point x="3544" y="3680" type="line"/>
      <point x="3568" y="3680" type="line"/>
    </contour>
  </outline>
</glyph>
<glyph name="y" format="2">
  <advance width="2274"/>
  <unicode hex="0079"/>
  <outline>
    <contour>
      <point x="1095" y="1876" type="line"/>
      <point x="-15.5" y="1876" type="line"/>
      <point x="-15.5" y="1884" type="line"/>
      <point x="1095" y="1884" type="line"/>
    </contour>
    <contour>
      <point x="2321.5" y="1876" type="line"/>
      <point x="1645" y="1876" type="line"/>
      <point x="1645" y="1884" type="line"/>
      <point x="2321.5" y="1884" type="line"/>
    </contour>
    <contour>
      <point x="1435" y="482" type="line"/>
      <point x="1180.5" y="-95" type="line"/>
      <point x="195.5" y="1884" type="line"/>
      <point x="738.5" y="1884" type="line"/>
    </contour>
    <contour>
      <point x="853.5" y="-847.5" type="curve"/>
      <point x="2028.5" y="1884" type="line"/>
      <point x="2039.5" y="1884" type="line"/>
      <point x="885" y="-802.5" type="line" smooth="yes"/>
      <point x="813.5" y="-961"/>
      <point x="734.5" y="-1068.5"/>
      <point x="568.5" y="-1068.5" type="curve" smooth="yes"/>
      <point x="435.5" y="-1068.5"/>
      <point x="296" y="-981"/>
      <point x="296" y="-804.5" type="curve" smooth="yes"/>
      <point x="296" y="-648"/>
      <point x="409.5" y="-528"/>
      <point x="572" y="-528" type="curve" smooth="yes"/>
      <point x="728.5" y="-528"/>
      <point x="857" y="-654.5"/>
    </contour>
  </outline>
</glyph>
<glyph name="z" format="2">
  <advance width="1938"/>
  <unicode hex="007A"/>
  <outline>
    <contour>
      <point x="840" y="1876" type="line" smooth="yes"/>
      <point x="414.5" y="1876"/>
      <point x="242" y="1594"/>
      <point x="211.5" y="1180" type="curve"/>
      <point x="203.5" y="1180" type="line"/>
      <point x="203.5" y="1884" type="line"/>
      <point x="1763.5" y="1884" type="line"/>
      <point x="1763.5" y="1876" type="line"/>
      <point x="633.5" y="8" type="line"/>
      <point x="1098.5" y="8" type="line" smooth="yes"/>
      <point x="1619.5" y="8"/>
      <point x="1790.5" y="246"/>
      <point x="1821" y="754" type="curve"/>
      <point x="1829.5" y="754" type="line"/>
      <point x="1829.5" y="0" type="line"/>
      <point x="89" y="0" type="line"/>
      <point x="89" y="8" type="line"/>
      <point x="1215" y="1876" type="line"/>
    </contour>
  </outline>
</glyph>
<glyph name="asciitilde" format="2">
  <advance width="2818"/>
  <unicode hex="007E"/>
  <outline>
    <contour>
      <point x="851.5" y="1759.5" type="curve" smooth="yes"/>
      <point x="633.5" y="1759.5"/>
      <point x="418" y="1667.5"/>
      <point x="418" y="1404" type="curve"/>
      <point x="410" y="1404" type="line"/>
      <point x="410" y="1876"/>
      <point x="675.5" y="2119"/>
      <point x="1020" y="2119" type="curve" smooth="yes"/>
      <point x="1470" y="2119"/>
      <point x="1520.5" y="1734.5"/>
      <point x="1924.5" y="1734.5" type="curve" smooth="yes"/>
      <point x="2182.5" y="1734.5"/>
      <point x="2400" y="1824.5"/>
      <point x="2400" y="2088" type="curve"/>
      <point x="2408" y="2088" type="line"/>
      <point x="2408" y="1616"/>
      <point x="2142.5" y="1373.5"/>
      <point x="1798" y="1373.5" type="curve" smooth="yes"/>
      <point x="1278" y="1373.5"/>
      <point x="1283.5" y="1759.5"/>
    </contour>
  </outline>
</glyph>
<glyph name="cent" format="2">
  <advance width="2036"/>
  <unicode hex="00A2"/>
  <outline>
    <contour>
      <point x="1117.5" y="2274" type="line"/>
      <point x="1117.5" y="-348" type="line"/>
      <point x="1109.5" y="-348" type="line"/>
      <point x="1109.5" y="2274" type="line"/>
    </contour>
    <component base="c"/>
  </outline>
</glyph>
<glyph name="sterling" format="2">
  <advance width="2623"/>
  <unicode hex="00A3"/>
  <outline>
    <contour>
      <point x="2527.5" y="766.5" type="line"/>
      <point x="2527.5" y="70"/>
      <point x="2216" y="-122"/>
      <point x="1800.5" y="-122" type="curve" smooth="yes"/>
      <point x="1238.5" y="-122"/>
      <point x="1024" y="122"/>
      <point x="766" y="122" type="curve" smooth="yes"/>
      <point x="598" y="122"/>
      <point x="348" y="40"/>
      <point x="308" y="-82" type="curve"/>
      <point x="300" y="-82" type="line"/>
      <point x="371.5" y="222"/>
      <point x="641.5" y="520.5"/>
      <point x="1012" y="520.5" type="curve" smooth="yes"/>
      <point x="1401.5" y="520.5"/>
      <point x="1574" y="381"/>
      <point x="1865.5" y="381" type="curve" smooth="yes"/>
      <point x="2144" y="381"/>
      <point x="2519.5" y="430.5"/>
      <point x="2519.5" y="766.5" type="curve"/>
    </contour>
    <contour>
      <point x="1904" y="1649" type="line"/>
      <point x="1904" y="1641" type="line"/>
      <point x="62" y="1641" type="line"/>
      <point x="62" y="1649" type="line"/>
    </contour>
    <contour>
      <point x="443" y="2252" type="curve" smooth="yes"/>
      <point x="443" y="2826"/>
      <point x="881.5" y="3112"/>
      <point x="1572" y="3112" type="curve" smooth="yes"/>
      <point x="2236" y="3112"/>
      <point x="2547" y="2752"/>
      <point x="2547" y="2416" type="curve" smooth="yes"/>
      <point x="2547" y="2217.5"/>
      <point x="2412.5" y="2095.5"/>
      <point x="2254.5" y="2095.5" type="curve" smooth="yes"/>
      <point x="2111.5" y="2095.5"/>
      <point x="1950" y="2191"/>
      <point x="1950" y="2385.5" type="curve" smooth="yes"/>
      <point x="1950" y="2560"/>
      <point x="2096.5" y="2672.5"/>
      <point x="2245.5" y="2672.5" type="curve" smooth="yes"/>
      <point x="2404.5" y="2672.5"/>
      <point x="2490.5" y="2555.5"/>
      <point x="2523" y="2496.5" type="curve"/>
      <point x="2488" y="2790"/>
      <point x="2198.5" y="3095"/>
      <point x="1613" y="3095" type="curve" smooth="yes"/>
      <point x="1115" y="3095"/>
      <point x="1020" y="2669.5"/>
      <point x="1020" y="2345" type="curve" smooth="yes"/>
      <point x="1020" y="1939"/>
      <point x="1250" y="1710.5"/>
      <point x="1250" y="1382" type="curve" smooth="yes"/>
      <point x="1250" y="634"/>
      <point x="250" y="624"/>
      <point x="304" y="-82" type="curve"/>
      <point x="294" y="-82" type="line"/>
      <point x="216" y="488"/>
      <point x="775" y="808"/>
      <point x="775" y="1070" type="curve" smooth="yes"/>
      <point x="775" y="1536"/>
      <point x="443" y="1780"/>
    </contour>
  </outline>
</glyph>
<glyph name="section" format="2">
  <advance width="1890"/>
  <unicode hex="00A7"/>
  <outline>
    <contour>
      <point x="491.5" y="2653.5" type="curve" smooth="yes"/>
      <point x="491.5" y="2188"/>
      <point x="1750" y="2207.5"/>
      <point x="1750" y="1581.5" type="curve" smooth="yes"/>
      <point x="1750" y="1307"/>
      <point x="1527.5" y="1189"/>
      <point x="1316" y="1051.5" type="curve"/>
      <point x="1267.5" y="1069.5" type="line"/>
      <point x="1369.5" y="1154.5"/>
      <point x="1458.5" y="1222"/>
      <point x="1458.5" y="1348.5" type="curve" smooth="yes"/>
      <point x="1458.5" y="1843.5"/>
      <point x="264" y="1723.5"/>
      <point x="264" y="2469.5" type="curve" smooth="yes"/>
      <point x="264" y="2895.5"/>
      <point x="627" y="3112"/>
      <point x="976" y="3112" type="curve" smooth="yes"/>
      <point x="1326" y="3112"/>
      <point x="1708.5" y="2957.5"/>
      <point x="1708.5" y="2523.5" type="curve" smooth="yes"/>
      <point x="1708.5" y="2345.5"/>
      <point x="1596.5" y="2209"/>
      <point x="1432" y="2209" type="curve" smooth="yes"/>
      <point x="1289.5" y="2209"/>
      <point x="1181" y="2311.5"/>
      <point x="1181" y="2469.5" type="curve" smooth="yes"/>
      <point x="1181" y="2611.5"/>
      <point x="1307" y="2721.5"/>
      <point x="1445.5" y="2721.5" type="curve" smooth="yes"/>
      <point x="1520" y="2721.5"/>
      <point x="1588.5" y="2685"/>
      <point x="1615" y="2660.5" type="curve"/>
      <point x="1567.5" y="2896.5"/>
      <point x="1301.5" y="3050"/>
      <point x="976" y="3050" type="curve" smooth="yes"/>
      <point x="729.5" y="3050"/>
      <point x="491.5" y="2879"/>
    </contour>
    <contour>
      <point x="1732" y="664" type="curve" smooth="yes"/>
      <point x="1732" y="238"/>
      <point x="1399" y="-40"/>
      <point x="907" y="-40" type="curve" smooth="yes"/>
      <point x="547" y="-40"/>
      <point x="122" y="102"/>
      <point x="122" y="557.5" type="curve" smooth="yes"/>
      <point x="122" y="735.5"/>
      <point x="234.5" y="872"/>
      <point x="399" y="872" type="curve" smooth="yes"/>
      <point x="541.5" y="872"/>
      <point x="651.5" y="771"/>
      <point x="651.5" y="613" type="curve" smooth="yes"/>
      <point x="651.5" y="471"/>
      <point x="526.5" y="363.5"/>
      <point x="388" y="363.5" type="curve" smooth="yes"/>
      <point x="303.5" y="363.5"/>
      <point x="235.5" y="410.5"/>
      <point x="215.5" y="435" type="curve"/>
      <point x="269.5" y="160"/>
      <point x="592.5" y="22"/>
      <point x="907" y="22" type="curve" smooth="yes"/>
      <point x="1308.5" y="22"/>
      <point x="1458.5" y="249.5"/>
      <point x="1458.5" y="433.5" type="curve" smooth="yes"/>
      <point x="1458.5" y="899"/>
      <point x="176.5" y="848"/>
      <point x="176.5" y="1444" type="curve" smooth="yes"/>
      <point x="176.5" y="1748.5"/>
      <point x="417" y="1932"/>
      <point x="567" y="2038" type="curve"/>
      <point x="627.5" y="2038" type="line"/>
      <point x="591" y="1988"/>
      <point x="501" y="1875"/>
      <point x="501" y="1728.5" type="curve" smooth="yes"/>
      <point x="501" y="1233.5"/>
      <point x="1732" y="1410"/>
    </contour>
  </outline>
</glyph>
<glyph name="degree" format="2">
  <advance width="1310"/>
  <unicode hex="00B0"/>
  <outline>
    <contour>
      <point x="164" y="2786" type="curve" smooth="yes"/>
      <point x="164" y="3056"/>
      <point x="386" y="3276"/>
      <point x="656" y="3276" type="curve" smooth="yes"/>
      <point x="926" y="3276"/>
      <point x="1146" y="3056"/>
      <point x="1146" y="2786" type="curve" smooth="yes"/>
      <point x="1146" y="2516"/>
      <point x="926" y="2294"/>
      <point x="656" y="2294" type="curve" smooth="yes"/>
      <point x="386" y="2294"/>
      <point x="164" y="2516"/>
    </contour>
    <contour>
      <point x="246" y="2786" type="curve" smooth="yes"/>
      <point x="246" y="2552"/>
      <point x="422" y="2376"/>
      <point x="656" y="2376" type="curve" smooth="yes"/>
      <point x="890" y="2376"/>
      <point x="1064" y="2552"/>
      <point x="1064" y="2786" type="curve" smooth="yes"/>
      <point x="1064" y="3020"/>
      <point x="890" y="3194"/>
      <point x="656" y="3194" type="curve" smooth="yes"/>
      <point x="422" y="3194"/>
      <point x="246" y="3020"/>
    </contour>
  </outline>
</glyph>
<glyph name="acute" format="2">
  <advance width="401"/>
  <unicode hex="00B4"/>
  <outline>
    <contour>
      <point x="299" y="713" type="curve" smooth="yes"/>
      <point x="60" y="721" type="line"/>
      <point x="59" y="723" type="line"/>
      <point x="289" y="796" type="line" smooth="yes"/>
      <point x="321" y="807"/>
      <point x="346" y="780"/>
      <point x="346" y="755" type="curve" smooth="yes"/>
      <point x="346" y="730"/>
      <point x="324" y="711"/>
    </contour>
  </outline>
</glyph>
<glyph name="mu" format="2">
  <advance width="2303"/>
  <unicode hex="00B5"/>
  <outline>
    <contour>
      <point x="1039" y="-504" type="curve" smooth="yes"/>
      <point x="1175" y="-504"/>
      <point x="1281" y="-622"/>
      <point x="1281" y="-778" type="curve" smooth="yes"/>
      <point x="1281" y="-938"/>
      <point x="1196.5" y="-1064"/>
      <point x="896.5" y="-1064" type="curve" smooth="yes"/>
      <point x="610.5" y="-1064"/>
      <point x="363" y="-864"/>
      <point x="363" y="-496" type="curve" smooth="yes"/>
      <point x="363" y="1314" type="line"/>
      <point x="371" y="1314" type="line"/>
      <point x="371" y="-496" type="line" smooth="yes"/>
      <point x="371" y="-856"/>
      <point x="622.5" y="-1098"/>
      <point x="986.5" y="-1048" type="curve"/>
      <point x="986.5" y="-1048" type="line"/>
      <point x="888.5" y="-1016"/>
      <point x="793" y="-918"/>
      <point x="793" y="-762" type="curve" smooth="yes"/>
      <point x="793" y="-626"/>
      <point x="903" y="-504"/>
    </contour>
    <component base="u"/>
  </outline>
</glyph>
<glyph name="cedilla" format="2">
  <advance width="2252"/>
  <unicode hex="00B8"/>
  <outline>
    <contour>
      <point x="1307" y="-574" type="curve" smooth="yes"/>
      <point x="1307" y="-356"/>
      <point x="1123.5" y="-324"/>
      <point x="888" y="-324" type="curve"/>
      <point x="1258" y="168" type="line"/>
      <point x="1270" y="168" type="line"/>
      <point x="1024" y="-160" type="line"/>
      <point x="1369.5" y="-172"/>
      <point x="1679" y="-262"/>
      <point x="1679" y="-492" type="curve" smooth="yes"/>
      <point x="1679" y="-696"/>
      <point x="1483" y="-846.5"/>
      <point x="925.5" y="-846.5" type="curve"/>
      <point x="925.5" y="-838" type="line"/>
      <point x="1167.5" y="-838"/>
      <point x="1307" y="-724"/>
    </contour>
  </outline>
</glyph>
<glyph name="AE" format="2">
  <advance width="1018"/>
  <unicode hex="00C6"/>
  <outline>
    <contour>
      <point x="525" y="750" type="line"/>
      <point x="528" y="750" type="line"/>
      <point x="112" y="0" type="line"/>
      <point x="109" y="0" type="line"/>
    </contour>
    <contour>
      <point x="15" y="2" type="line"/>
      <point x="235" y="2" type="line"/>
      <point x="235" y="0" type="line"/>
      <point x="15" y="0" type="line"/>
    </contour>
    <contour>
      <point x="247" y="246" type="line"/>
      <point x="535" y="246" type="line"/>
      <point x="535" y="244" type="line"/>
      <point x="247" y="244" type="line"/>
    </contour>
    <contour>
      <point x="525" y="750" type="line"/>
      <point x="644" y="750" type="line"/>
      <point x="644" y="0" type="line"/>
      <point x="525" y="0" type="line"/>
    </contour>
    <contour>
      <point x="525" y="750" type="line"/>
      <point x="978" y="750" type="line"/>
      <point x="978" y="545" type="line"/>
      <point x="976" y="545" type="line"/>
      <point x="970" y="652"/>
      <point x="909" y="748"/>
      <point x="794" y="748" type="curve" smooth="yes"/>
      <point x="525" y="748" type="line"/>
    </contour>
    <contour>
      <point x="988" y="0" type="line"/>
      <point x="435" y="0" type="line"/>
      <point x="435" y="2" type="line"/>
      <point x="784" y="2" type="line" smooth="yes"/>
      <point x="919" y="2"/>
      <point x="980" y="98"/>
      <point x="986" y="225" type="curve"/>
      <point x="988" y="225" type="line"/>
    </contour>
    <contour>
      <point x="812" y="272" type="line"/>
      <point x="806" y="339"/>
      <point x="751" y="387"/>
      <point x="694" y="387" type="curve" smooth="yes"/>
      <point x="634" y="387" type="line"/>
      <point x="634" y="389" type="line"/>
      <point x="694" y="389" type="line" smooth="yes"/>
      <point x="751" y="389"/>
      <point x="806" y="432"/>
      <point x="812" y="499" type="curve"/>
      <point x="814" y="499" type="line"/>
      <point x="814" y="272" type="line"/>
    </contour>
  </outline>
</glyph>
<glyph name="ae" format="2">
  <advance width="791"/>
  <unicode hex="00E6"/>
  <outline>
    <contour>
      <point x="70" y="364" type="curve" smooth="yes"/>
      <point x="70" y="427"/>
      <point x="157" y="468"/>
      <point x="252" y="468" type="curve" smooth="yes"/>
      <point x="382" y="468"/>
      <point x="408" y="390"/>
      <point x="408" y="305" type="curve"/>
      <point x="397" y="181" type="line"/>
      <point x="397" y="57"/>
      <point x="321" y="-10"/>
      <point x="208" y="-10" type="curve" smooth="yes"/>
      <point x="117" y="-10"/>
      <point x="35" y="23"/>
      <point x="35" y="113" type="curve" smooth="yes"/>
      <point x="35" y="197"/>
      <point x="112" y="254"/>
      <point x="254" y="254" type="curve" smooth="yes"/>
      <point x="366" y="254" type="line"/>
      <point x="366" y="252" type="line"/>
      <point x="268" y="252" type="line" smooth="yes"/>
      <point x="198" y="252"/>
      <point x="157" y="191"/>
      <point x="157" y="125" type="curve" smooth="yes"/>
      <point x="157" y="58"/>
      <point x="181" y="-7"/>
      <point x="230" y="-7" type="curve" smooth="yes"/>
      <point x="281" y="-7"/>
      <point x="320" y="74"/>
      <point x="320" y="171" type="curve" smooth="yes"/>
      <point x="320" y="305" type="line" smooth="yes"/>
      <point x="320" y="372"/>
      <point x="310" y="463"/>
      <point x="230" y="463" type="curve" smooth="yes"/>
      <point x="171" y="463"/>
      <point x="120" y="439"/>
      <point x="94" y="414" type="curve"/>
      <point x="158" y="442"/>
      <point x="201" y="404"/>
      <point x="201" y="366" type="curve" smooth="yes"/>
      <point x="201" y="324"/>
      <point x="163" y="303"/>
      <point x="132" y="303" type="curve" smooth="yes"/>
      <point x="96" y="303"/>
      <point x="70" y="326"/>
    </contour>
    <contour>
      <point x="642" y="255" type="line"/>
      <point x="641" y="345"/>
      <point x="632" y="468"/>
      <point x="553" y="468" type="curve" smooth="yes"/>
      <point x="466" y="468"/>
      <point x="443" y="348"/>
      <point x="443" y="234" type="curve" smooth="yes"/>
      <point x="443" y="120"/>
      <point x="470" y="-5"/>
      <point x="573" y="-5" type="curve" smooth="yes"/>
      <point x="671" y="-5"/>
      <point x="739" y="59"/>
      <point x="764" y="143" type="curve"/>
      <point x="766" y="143" type="line"/>
      <point x="740" y="56"/>
      <point x="671" y="-10"/>
      <point x="556" y="-10" type="curve" smooth="yes"/>
      <point x="427" y="-10"/>
      <point x="342" y="78"/>
      <point x="342" y="230" type="curve" smooth="yes"/>
      <point x="342" y="382"/>
      <point x="424" y="470"/>
      <point x="553" y="470" type="curve" smooth="yes"/>
      <point x="702" y="470"/>
      <point x="765" y="362"/>
      <point x="765" y="253" type="curve"/>
      <point x="399" y="253" type="line"/>
      <point x="399" y="255" type="line"/>
    </contour>
  </outline>
</glyph>
<glyph name="eth" format="2">
  <advance width="580"/>
  <unicode hex="00F0"/>
  <outline>
    <contour>
      <point x="118" y="630" type="line"/>
      <point x="548" y="630" type="line"/>
      <point x="548" y="628" type="line"/>
      <point x="118" y="628" type="line"/>
    </contour>
    <contour>
      <point x="530" y="310" type="curve" smooth="yes"/>
      <point x="530" y="100"/>
      <point x="431" y="-10"/>
      <point x="276" y="-10" type="curve" smooth="yes"/>
      <point x="121" y="-10"/>
      <point x="30" y="100"/>
      <point x="30" y="250" type="curve" smooth="yes"/>
      <point x="30" y="420"/>
      <point x="150" y="491"/>
      <point x="255" y="491" type="curve" smooth="yes"/>
      <point x="376" y="491"/>
      <point x="406" y="399"/>
      <point x="406" y="280" type="curve"/>
      <point x="404" y="280" type="line"/>
      <point x="404" y="401"/>
      <point x="368" y="483"/>
      <point x="279" y="483" type="curve" smooth="yes"/>
      <point x="200" y="483"/>
      <point x="156" y="394"/>
      <point x="156" y="250" type="curve" smooth="yes"/>
      <point x="156" y="126"/>
      <point x="176" y="-8"/>
      <point x="273" y="-8" type="curve" smooth="yes"/>
      <point x="370" y="-8"/>
      <point x="404" y="136"/>
      <point x="404" y="280" type="curve"/>
      <point x="404" y="322" type="line"/>
      <point x="404" y="518"/>
      <point x="281" y="759"/>
      <point x="105" y="759" type="curve"/>
      <point x="105" y="760" type="line"/>
      <point x="342" y="760"/>
      <point x="530" y="557"/>
    </contour>
  </outline>
</glyph>
<glyph name="divide" format="2">
  <advance width="2394"/>
  <unicode hex="00F7"/>
  <outline>
    <contour>
      <point x="194.989" y="1622" type="line"/>
      <point x="2199.32" y="1622" type="line"/>
      <point x="2199.32" y="1614" type="line"/>
      <point x="194.989" y="1614" type="line"/>
    </contour>
    <contour>
      <point x="891.5" y="829" type="curve" smooth="yes"/>
      <point x="891.5" y="998.5"/>
      <point x="1029.5" y="1136.5"/>
      <point x="1199" y="1136.5" type="curve" smooth="yes"/>
      <point x="1368.5" y="1136.5"/>
      <point x="1506" y="998.5"/>
      <point x="1506" y="829" type="curve" smooth="yes"/>
      <point x="1506" y="659.5"/>
      <point x="1368.5" y="523.5"/>
      <point x="1199" y="523.5" type="curve" smooth="yes"/>
      <point x="1029.5" y="523.5"/>
      <point x="891.5" y="659.5"/>
    </contour>
    <contour>
      <point x="891.5" y="2344.5" type="curve" smooth="yes"/>
      <point x="891.5" y="2514"/>
      <point x="1029.5" y="2652"/>
      <point x="1199" y="2652" type="curve" smooth="yes"/>
      <point x="1368.5" y="2652"/>
      <point x="1506" y="2514"/>
      <point x="1506" y="2344.5" type="curve" smooth="yes"/>
      <point x="1506" y="2175"/>
      <point x="1368.5" y="2039"/>
      <point x="1199" y="2039" type="curve" smooth="yes"/>
      <point x="1029.5" y="2039"/>
      <point x="891.5" y="2175"/>
    </contour>
  </outline>
</glyph>
<glyph name="thorn" format="2">
  <advance width="4744"/>
  <unicode hex="00FE"/>
  <outline>
    <contour>
      <point x="1544" y="1840" type="curve" smooth="yes"/>
      <point x="1544" y="3056"/>
      <point x="2000" y="3752"/>
      <point x="2808" y="3752" type="curve" smooth="yes"/>
      <point x="3680" y="3752"/>
      <point x="4504" y="3040"/>
      <point x="4504" y="1840" type="curve" smooth="yes"/>
      <point x="4504" y="640"/>
      <point x="3680" y="-80"/>
      <point x="2808" y="-80" type="curve" smooth="yes"/>
      <point x="2000" y="-80"/>
      <point x="1544" y="624"/>
    </contour>
    <contour>
      <point x="1560" y="1840" type="curve" smooth="yes"/>
      <point x="1560" y="608"/>
      <point x="2064" y="-8"/>
      <point x="2640" y="-8" type="curve" smooth="yes"/>
      <point x="3232" y="-8"/>
      <point x="3488" y="736"/>
      <point x="3488" y="1840" type="curve" smooth="yes"/>
      <point x="3488" y="2944"/>
      <point x="3232" y="3680"/>
      <point x="2640" y="3680" type="curve" smooth="yes"/>
      <point x="2064" y="3680"/>
      <point x="1560" y="3072"/>
    </contour>
    <contour>
      <point x="120" y="-1984" type="line"/>
      <point x="2120" y="-1984" type="line"/>
      <point x="2120" y="-2000" type="line"/>
      <point x="120" y="-2000" type="line"/>
    </contour>
    <contour>
      <point x="680" y="5984" type="line"/>
      <point x="120" y="5984" type="line"/>
      <point x="120" y="6000" type="line"/>
      <point x="1560" y="6000" type="line"/>
      <point x="1560" y="-2000" type="line"/>
      <point x="680" y="-2000" type="line"/>
    </contour>
  </outline>
</glyph>
<glyph name="Dcroat" format="2">
  <advance width="2984"/>
  <unicode hex="0110"/>
  <outline>
    <contour>
      <point x="445" y="3072" type="line"/>
      <point x="957.5" y="3072" type="line"/>
      <point x="957.5" y="0" type="line"/>
      <point x="445" y="0" type="line"/>
    </contour>
    <contour>
      <point x="1305" y="0" type="curve" smooth="yes"/>
      <point x="77" y="0" type="line"/>
      <point x="77" y="8" type="line"/>
      <point x="1305" y="8" type="line" smooth="yes"/>
      <point x="1997.5" y="8"/>
      <point x="2227" y="759.5"/>
      <point x="2227" y="1536" type="curve" smooth="yes"/>
      <point x="2227" y="2312.5"/>
      <point x="1955.5" y="3064"/>
      <point x="1305" y="3064" type="curve" smooth="yes"/>
      <point x="77" y="3064" type="line"/>
      <point x="77" y="3072" type="line"/>
      <point x="1305" y="3072" type="line" smooth="yes"/>
      <point x="2249.5" y="3072"/>
      <point x="2821.5" y="2428.5"/>
      <point x="2821.5" y="1536" type="curve" smooth="yes"/>
      <point x="2821.5" y="643.5"/>
      <point x="2208" y="0"/>
    </contour>
    <contour>
      <point x="88.25" y="1498" type="line"/>
      <point x="1395.75" y="1498" type="line"/>
      <point x="1395.75" y="1490" type="line"/>
      <point x="88.25" y="1490" type="line"/>
    </contour>
  </outline>
</glyph>
<glyph name="kgreenlandic" format="2">
  <advance width="4864"/>
  <unicode hex="0138"/>
  <outline>
    <contour>
      <point x="4456" y="0" type="line"/>
      <point x="3360" y="0" type="line"/>
      <point x="1656" y="2104" type="line"/>
      <point x="3736" y="3680" type="line"/>
      <point x="3760" y="3680" type="line"/>
      <point x="2336" y="2584" type="line"/>
    </contour>
    <contour>
      <point x="2720" y="16" type="line"/>
      <point x="4760" y="16" type="line"/>
      <point x="4760" y="0" type="line"/>
      <point x="2720" y="0" type="line"/>
    </contour>
    <contour>
      <point x="4440" y="3664" type="line"/>
      <point x="2656" y="3664" type="line"/>
      <point x="2656" y="3680" type="line"/>
      <point x="4440" y="3680" type="line"/>
    </contour>
    <contour>
      <point x="184" y="16" type="line"/>
      <point x="2296" y="16" type="line"/>
      <point x="2296" y="0" type="line"/>
      <point x="184" y="0" type="line"/>
    </contour>
    <contour>
      <point x="904" y="3664" type="line"/>
      <point x="184" y="3664" type="line"/>
      <point x="184" y="3680" type="line"/>
      <point x="1784" y="3680" type="line"/>
      <point x="1784" y="0" type="line"/>
      <point x="904" y="0" type="line"/>
    </contour>
  </outline>
</glyph>
<glyph name="OE" format="2">
  <advance width="966"/>
  <unicode hex="0152"/>
  <outline>
    <contour>
      <point x="398" y="748" type="move"/>
    </contour>
    <contour>
      <point x="179" y="375" type="curve" smooth="yes"/>
      <point x="179" y="187"/>
      <point x="232" y="2"/>
      <point x="398" y="2" type="curve"/>
      <point x="384" y="0" type="line"/>
      <point x="181" y="0"/>
      <point x="40" y="152"/>
      <point x="40" y="375" type="curve" smooth="yes"/>
      <point x="40" y="598"/>
      <point x="181" y="750"/>
      <point x="384" y="750" type="curve"/>
      <point x="398" y="748" type="line"/>
      <point x="232" y="748"/>
      <point x="179" y="563"/>
    </contour>
    <component base="E" xOffset="365"/>
  </outline>
</glyph>
<glyph name="uni0237" format="2">
  <advance width="2424"/>
  <unicode hex="0237"/>
  <outline>
    <contour>
      <point x="1784" y="3680" type="line"/>
      <point x="1784" y="-96" type="line" smooth="yes"/>
      <point x="1784" y="-1144"/>
      <point x="1408" y="-2080"/>
      <point x="336" y="-2080" type="curve" smooth="yes"/>
      <point x="-344" y="-2080"/>
      <point x="-744" y="-1664"/>
      <point x="-744" y="-1176" type="curve" smooth="yes"/>
      <point x="-744" y="-816"/>
      <point x="-496" y="-616"/>
      <point x="-208" y="-616" type="curve" smooth="yes"/>
      <point x="40" y="-616"/>
      <point x="320" y="-760"/>
      <point x="320" y="-1112" type="curve" smooth="yes"/>
      <point x="320" y="-1456"/>
      <point x="72" y="-1624"/>
      <point x="-256" y="-1624" type="curve" smooth="yes"/>
      <point x="-504" y="-1624"/>
      <point x="-688" y="-1432"/>
      <point x="-720" y="-1240" type="curve"/>
      <point x="-712" y="-1648"/>
      <point x="-320" y="-2056"/>
      <point x="272" y="-2056" type="curve" smooth="yes"/>
      <point x="1040" y="-2056"/>
      <point x="896" y="-848"/>
      <point x="896" y="168" type="curve" smooth="yes"/>
      <point x="904" y="3664" type="line"/>
      <point x="184" y="3664" type="line"/>
      <point x="184" y="3680" type="line"/>
    </contour>
  </outline>
</glyph>
<glyph name="circumflex" format="2">
  <advance width="3208"/>
  <unicode hex="02C6"/>
  <outline>
    <contour>
      <point x="1600" y="5720" type="line"/>
      <point x="408" y="5184" type="line"/>
      <point x="400" y="5200" type="line"/>
      <point x="1312" y="6160" type="line"/>
      <point x="1896" y="6160" type="line"/>
      <point x="2808" y="5200" type="line"/>
      <point x="2800" y="5184" type="line"/>
    </contour>
  </outline>
</glyph>
<glyph name="caron" format="2">
  <advance width="401"/>
  <unicode hex="02C7"/>
  <outline>
    <contour>
      <point x="200" y="715" type="line"/>
      <point x="349" y="781" type="line"/>
      <point x="351" y="780" type="line"/>
      <point x="237" y="660" type="line"/>
      <point x="164" y="660" type="line"/>
      <point x="50" y="780" type="line"/>
      <point x="52" y="781" type="line"/>
    </contour>
  </outline>
</glyph>
<glyph name="breve" format="2">
  <advance width="1187"/>
  <unicode hex="02D8"/>
  <outline>
    <contour>
      <point x="132" y="3108" type="line"/>
      <point x="132" y="2913"/>
      <point x="372.5" y="2826.5"/>
      <point x="594.5" y="2826.5" type="curve" smooth="yes"/>
      <point x="816.5" y="2826.5"/>
      <point x="1057" y="2913"/>
      <point x="1057" y="3108" type="curve"/>
      <point x="1065" y="3108" type="line"/>
      <point x="1065" y="2786.5"/>
      <point x="952.5" y="2518.5"/>
      <point x="594.5" y="2518.5" type="curve" smooth="yes"/>
      <point x="236.5" y="2518.5"/>
      <point x="122" y="2786.5"/>
      <point x="122" y="3108" type="curve"/>
    </contour>
  </outline>
</glyph>
<glyph name="ogonek" format="2">
  <advance width="550"/>
  <unicode hex="02DB"/>
  <outline>
    <contour>
      <point x="393" y="-117" type="line"/>
      <point x="378" y="-145"/>
      <point x="351" y="-190"/>
      <point x="274" y="-190" type="curve" smooth="yes"/>
      <point x="217" y="-190"/>
      <point x="160" y="-164"/>
      <point x="160" y="-104" type="curve" smooth="yes"/>
      <point x="160" y="-24"/>
      <point x="246" y="22"/>
      <point x="313" y="43" type="curve"/>
      <point x="315" y="41" type="line"/>
      <point x="288" y="26"/>
      <point x="269" y="-20"/>
      <point x="269" y="-85" type="curve" smooth="yes"/>
      <point x="269" y="-136"/>
      <point x="292" y="-170"/>
      <point x="324" y="-170" type="curve" smooth="yes"/>
      <point x="357" y="-170"/>
      <point x="374" y="-147"/>
      <point x="392" y="-116" type="curve"/>
    </contour>
  </outline>
</glyph>
<glyph name="pi" format="2">
  <advance width="4808"/>
  <unicode hex="03C0"/>
  <outline>
    <contour>
      <point x="4528" y="824" type="line"/>
      <point x="4344" y="264"/>
      <point x="4072" y="-80"/>
      <point x="3584" y="-80" type="curve" smooth="yes"/>
      <point x="3144" y="-80"/>
      <point x="2768" y="128"/>
      <point x="2768" y="616" type="curve" smooth="yes"/>
      <point x="2768" y="3360" type="line"/>
      <point x="3648" y="3360" type="line"/>
      <point x="3648" y="632" type="line" smooth="yes"/>
      <point x="3648" y="472"/>
      <point x="3744" y="328"/>
      <point x="3952" y="328" type="curve" smooth="yes"/>
      <point x="4168" y="328"/>
      <point x="4344" y="472"/>
      <point x="4512" y="840" type="curve"/>
    </contour>
    <contour>
      <point x="896" y="-80" type="curve" smooth="yes"/>
      <point x="536" y="-80"/>
      <point x="344" y="120"/>
      <point x="344" y="368" type="curve" smooth="yes"/>
      <point x="344" y="992"/>
      <point x="1384" y="736"/>
      <point x="1384" y="2232" type="curve" smooth="yes"/>
      <point x="1384" y="3600" type="line"/>
      <point x="1832" y="3600" type="line"/>
      <point x="1832" y="1944" type="line" smooth="yes"/>
      <point x="1832" y="680"/>
      <point x="1488" y="-80"/>
    </contour>
    <contour>
      <point x="4368" y="3680" type="line"/>
      <point x="4368" y="2800" type="line"/>
      <point x="344" y="2800" type="line"/>
      <point x="344" y="2200" type="line"/>
      <point x="328" y="2200" type="line"/>
      <point x="328" y="3680" type="line"/>
    </contour>
  </outline>
</glyph>
<glyph name="uni1E9E" format="2">
  <advance width="3464"/>
  <unicode hex="1E9E"/>
  <outline>
    <contour>
      <point x="62" y="8" type="line"/>
      <point x="1331" y="8" type="line"/>
      <point x="1331" y="0" type="line"/>
      <point x="62" y="0" type="line"/>
    </contour>
    <contour>
      <point x="2331.5" y="1654.5" type="line"/>
      <point x="2155" y="1676.75"/>
      <point x="1979" y="1691.75"/>
      <point x="1804" y="1700" type="curve"/>
      <point x="2801" y="2933.5" type="line"/>
      <point x="2673.5" y="2996"/>
      <point x="2402" y="3104"/>
      <point x="2029" y="3104" type="curve" smooth="yes"/>
      <point x="1276" y="3104"/>
      <point x="963" y="2501"/>
      <point x="963" y="1766" type="curve" smooth="yes"/>
      <point x="963" y="0" type="line"/>
      <point x="430" y="0" type="line"/>
      <point x="430" y="1806" type="line" smooth="yes"/>
      <point x="430" y="2658.5"/>
      <point x="1125.5" y="3112"/>
      <point x="2029" y="3112" type="curve" smooth="yes"/>
      <point x="2655" y="3112"/>
      <point x="3046" y="2843.5"/>
      <point x="3178.5" y="2697.5" type="curve"/>
    </contour>
    <contour>
      <point x="1341" y="573" type="curve"/>
      <point x="1361.5" y="265"/>
      <point x="1660" y="-16"/>
      <point x="2124.5" y="-16" type="curve" smooth="yes"/>
      <point x="2587" y="-16"/>
      <point x="2749" y="382"/>
      <point x="2749" y="798.5" type="curve" smooth="yes"/>
      <point x="2749" y="1133"/>
      <point x="2650.5" y="1692"/>
      <point x="1804" y="1692" type="curve"/>
      <point x="1804" y="1700" type="line"/>
      <point x="3026.5" y="1700"/>
      <point x="3302" y="1274"/>
      <point x="3302" y="803.5" type="curve" smooth="yes"/>
      <point x="3302" y="261"/>
      <point x="2825.5" y="-40"/>
      <point x="2227" y="-40" type="curve" smooth="yes"/>
      <point x="1614.5" y="-40"/>
      <point x="1331.5" y="294.5"/>
      <point x="1331.5" y="609" type="curve" smooth="yes"/>
      <point x="1331.5" y="807.5"/>
      <point x="1459.5" y="931.5"/>
      <point x="1634" y="931.5" type="curve" smooth="yes"/>
      <point x="1787" y="931.5"/>
      <point x="1905.5" y="824.5"/>
      <point x="1905.5" y="646" type="curve" smooth="yes"/>
      <point x="1905.5" y="483.5"/>
      <point x="1764.5" y="368"/>
      <point x="1615.5" y="368" type="curve" smooth="yes"/>
      <point x="1478" y="368"/>
      <point x="1369.5" y="477.5"/>
    </contour>
  </outline>
</glyph>
<glyph name="uni2031" format="2">
  <advance width="8098"/>
  <unicode hex="2031"/>
  <outline>
    <contour>
      <point x="6779" y="860" type="curve" smooth="yes"/>
      <point x="6779" y="370.5"/>
      <point x="6843.5" y="-32"/>
      <point x="7096" y="-32" type="curve" smooth="yes"/>
      <point x="7348.5" y="-32"/>
      <point x="7414.5" y="370.5"/>
      <point x="7414.5" y="860" type="curve" smooth="yes"/>
      <point x="7414.5" y="1349.5"/>
      <point x="7348.5" y="1754"/>
      <point x="7096" y="1754" type="curve" smooth="yes"/>
      <point x="6843.5" y="1754"/>
      <point x="6779" y="1349.5"/>
    </contour>
    <contour>
      <point x="6236.5" y="860" type="curve" smooth="yes"/>
      <point x="6236.5" y="1446"/>
      <point x="6634" y="1762"/>
      <point x="7096" y="1762" type="curve" smooth="yes"/>
      <point x="7558" y="1762"/>
      <point x="7956.5" y="1446"/>
      <point x="7956.5" y="860" type="curve" smooth="yes"/>
      <point x="7956.5" y="274"/>
      <point x="7476" y="-40"/>
      <point x="7096" y="-40" type="curve" smooth="yes"/>
      <point x="6634" y="-40"/>
      <point x="6236.5" y="274"/>
    </contour>
    <contour>
      <point x="4782" y="860" type="curve" smooth="yes"/>
      <point x="4782" y="370.5"/>
      <point x="4846.5" y="-32"/>
      <point x="5099" y="-32" type="curve" smooth="yes"/>
      <point x="5351.5" y="-32"/>
      <point x="5417.5" y="370.5"/>
      <point x="5417.5" y="860" type="curve" smooth="yes"/>
      <point x="5417.5" y="1349.5"/>
      <point x="5351.5" y="1754"/>
      <point x="5099" y="1754" type="curve" smooth="yes"/>
      <point x="4846.5" y="1754"/>
      <point x="4782" y="1349.5"/>
    </contour>
    <contour>
      <point x="4240" y="860" type="curve" smooth="yes"/>
      <point x="4240" y="1446"/>
      <point x="4637" y="1762"/>
      <point x="5099" y="1762" type="curve" smooth="yes"/>
      <point x="5561" y="1762"/>
      <point x="5960" y="1446"/>
      <point x="5960" y="860" type="curve" smooth="yes"/>
      <point x="5960" y="274"/>
      <point x="5479" y="-40"/>
      <point x="5099" y="-40" type="curve" smooth="yes"/>
      <point x="4637" y="-40"/>
      <point x="4240" y="274"/>
    </contour>
    <contour>
      <point x="2815.5" y="860" type="curve" smooth="yes"/>
      <point x="2815.5" y="370.5"/>
      <point x="2881.5" y="-32"/>
      <point x="3134" y="-32" type="curve" smooth="yes"/>
      <point x="3386.5" y="-32"/>
      <point x="3451" y="370.5"/>
      <point x="3451" y="860" type="curve" smooth="yes"/>
      <point x="3451" y="1349.5"/>
      <point x="3386.5" y="1754"/>
      <point x="3134" y="1754" type="curve" smooth="yes"/>
      <point x="2881.5" y="1754"/>
      <point x="2815.5" y="1349.5"/>
    </contour>
    <contour>
      <point x="2273" y="860" type="curve" smooth="yes"/>
      <point x="2273" y="1446"/>
      <point x="2672" y="1762"/>
      <point x="3134" y="1762" type="curve" smooth="yes"/>
      <point x="3596" y="1762"/>
      <point x="3993" y="1446"/>
      <point x="3993" y="860" type="curve" smooth="yes"/>
      <point x="3993" y="274"/>
      <point x="3514" y="-40"/>
      <point x="3134" y="-40" type="curve" smooth="yes"/>
      <point x="2672" y="-40"/>
      <point x="2273" y="274"/>
    </contour>
    <contour>
      <point x="3143.5" y="3072" type="line"/>
      <point x="3154.5" y="3072" type="line"/>
      <point x="993.5" y="0" type="line"/>
      <point x="982.5" y="0" type="line"/>
    </contour>
    <contour>
      <point x="686" y="2212" type="curve" smooth="yes"/>
      <point x="686" y="1722.5"/>
      <point x="750.5" y="1318"/>
      <point x="1003" y="1318" type="curve" smooth="yes"/>
      <point x="1255.5" y="1318"/>
      <point x="1321.5" y="1722.5"/>
      <point x="1321.5" y="2212" type="curve" smooth="yes"/>
      <point x="1321.5" y="2701.5"/>
      <point x="1255.5" y="3104"/>
      <point x="1003" y="3104" type="curve" smooth="yes"/>
      <point x="750.5" y="3104"/>
      <point x="686" y="2701.5"/>
    </contour>
    <contour>
      <point x="144" y="2212" type="curve" smooth="yes"/>
      <point x="144" y="2798"/>
      <point x="541" y="3112"/>
      <point x="1003" y="3112" type="curve" smooth="yes"/>
      <point x="1465" y="3112"/>
      <point x="1864" y="2798"/>
      <point x="1864" y="2212" type="curve" smooth="yes"/>
      <point x="1864" y="1626"/>
      <point x="1383" y="1310"/>
      <point x="1003" y="1310" type="curve" smooth="yes"/>
      <point x="541" y="1310"/>
      <point x="144" y="1626"/>
    </contour>
  </outline>
</glyph>
<glyph name="uni203D" format="2">
  <advance width="2579"/>
  <unicode hex="203D"/>
  <outline>
    <contour>
      <point x="1581.5" y="2054" type="curve" smooth="yes"/>
      <point x="1535.5" y="1660"/>
      <point x="1271.5" y="1209.5"/>
      <point x="1271.5" y="923.5" type="curve"/>
      <point x="1263.5" y="923.5" type="line"/>
      <point x="1263.5" y="1209.5"/>
      <point x="1082.5" y="1660"/>
      <point x="1036.5" y="2054" type="curve" smooth="yes"/>
      <point x="1032.5" y="2082"/>
      <point x="1032.5" y="2108"/>
      <point x="1032.5" y="2132" type="curve" smooth="yes"/>
      <point x="1032.5" y="2246"/>
      <point x="1096.5" y="2439.5"/>
      <point x="1309" y="2439.5" type="curve" smooth="yes"/>
      <point x="1521.5" y="2439.5"/>
      <point x="1585.5" y="2246"/>
      <point x="1585.5" y="2132" type="curve" smooth="yes"/>
      <point x="1585.5" y="2108"/>
      <point x="1585.5" y="2082"/>
    </contour>
    <contour>
      <point x="276" y="2246.5" type="curve" smooth="yes"/>
      <point x="276" y="2622.5"/>
      <point x="672" y="3112"/>
      <point x="1366.5" y="3112" type="curve" smooth="yes"/>
      <point x="1984.5" y="3112"/>
      <point x="2436.5" y="2794.5"/>
      <point x="2436.5" y="2252" type="curve" smooth="yes"/>
      <point x="2436.5" y="1739.5"/>
      <point x="1877" y="1372"/>
      <point x="1360.5" y="1372" type="curve"/>
      <point x="1360.5" y="1380" type="line"/>
      <point x="1706.5" y="1407.5"/>
      <point x="1982.5" y="1862"/>
      <point x="1982.5" y="2294" type="curve" smooth="yes"/>
      <point x="1982.5" y="2680"/>
      <point x="1718.5" y="3079"/>
      <point x="1272.5" y="3079" type="curve" smooth="yes"/>
      <point x="704" y="3079"/>
      <point x="314" y="2622.5"/>
      <point x="297.5" y="2302.5" type="curve"/>
      <point x="323.5" y="2392.5"/>
      <point x="414.5" y="2488"/>
      <point x="561" y="2488" type="curve" smooth="yes"/>
      <point x="710" y="2488"/>
      <point x="825.5" y="2366.5"/>
      <point x="825.5" y="2222.5" type="curve" smooth="yes"/>
      <point x="825.5" y="2028"/>
      <point x="673.5" y="1941.5"/>
      <point x="551" y="1941.5" type="curve" smooth="yes"/>
      <point x="408.5" y="1941.5"/>
      <point x="276" y="2048"/>
    </contour>
    <component base="period" xOffset="795.5"/>
  </outline>
</glyph>
<glyph name="uniFB00" format="2">
  <advance width="2833"/>
  <unicode hex="FB00"/>
  <outline>
    <contour>
      <point x="89" y="8" type="line"/>
      <point x="2619" y="8" type="line"/>
      <point x="2619" y="0" type="line"/>
      <point x="89" y="0" type="line"/>
    </contour>
    <contour>
      <point x="89" y="1884" type="line"/>
      <point x="2700.5" y="1884" type="line"/>
      <point x="2700.5" y="1876" type="line"/>
      <point x="89" y="1876" type="line"/>
    </contour>
    <contour>
      <point x="1989.5" y="2496" type="curve"/>
      <point x="1964" y="2679"/>
      <point x="1739.5" y="2899"/>
      <point x="1438" y="2899" type="curve" smooth="yes"/>
      <point x="1110" y="2899"/>
      <point x="917.5" y="2528"/>
      <point x="917.5" y="2008" type="curve" smooth="yes"/>
      <point x="917.5" y="0" type="line"/>
      <point x="457.5" y="0" type="line"/>
      <point x="457.5" y="1892" type="line" smooth="yes"/>
      <point x="457.5" y="2448.5"/>
      <point x="854.5" y="2908"/>
      <point x="1427.5" y="2908" type="curve" smooth="yes"/>
      <point x="1769.5" y="2908"/>
      <point x="2004" y="2654"/>
      <point x="2004" y="2441.5" type="curve" smooth="yes"/>
      <point x="2004" y="2253"/>
      <point x="1882" y="2146.5"/>
      <point x="1729" y="2146.5" type="curve" smooth="yes"/>
      <point x="1596" y="2146.5"/>
      <point x="1448" y="2237"/>
      <point x="1448" y="2415.5" type="curve" smooth="yes"/>
      <point x="1448" y="2594"/>
      <point x="1575" y="2681.5"/>
      <point x="1722" y="2681.5" type="curve" smooth="yes"/>
      <point x="1851" y="2681.5"/>
      <point x="1965.5" y="2578.5"/>
    </contour>
    <contour>
      <point x="3102.5" y="2729" type="curve"/>
      <point x="3080.5" y="2906"/>
      <point x="2910" y="3103"/>
      <point x="2590" y="3103" type="curve" smooth="yes"/>
      <point x="2262" y="3103"/>
      <point x="2142" y="2732"/>
      <point x="2142" y="2212" type="curve" smooth="yes"/>
      <point x="2142" y="0" type="line"/>
      <point x="1681.5" y="0" type="line"/>
      <point x="1681.5" y="2098" type="line" smooth="yes"/>
      <point x="1681.5" y="2654.5"/>
      <point x="2017" y="3112"/>
      <point x="2580" y="3112" type="curve" smooth="yes"/>
      <point x="2922" y="3112"/>
      <point x="3114.5" y="2889.5"/>
      <point x="3114.5" y="2677" type="curve" smooth="yes"/>
      <point x="3114.5" y="2488.5"/>
      <point x="2993" y="2382"/>
      <point x="2840" y="2382" type="curve" smooth="yes"/>
      <point x="2707" y="2382"/>
      <point x="2560" y="2471"/>
      <point x="2560" y="2649.5" type="curve" smooth="yes"/>
      <point x="2560" y="2828"/>
      <point x="2694.5" y="2917.5"/>
      <point x="2841.5" y="2917.5" type="curve" smooth="yes"/>
      <point x="2959" y="2917.5"/>
      <point x="3067" y="2842"/>
    </contour>
  </outline>
</glyph>
<glyph name="uniFB01" format="2">
  <advance width="583"/>
  <unicode hex="FB01"/>
  <outline>
    <contour>
      <point x="104" y="512" type="line" smooth="yes"/>
      <point x="104" y="649"/>
      <point x="191" y="760"/>
      <point x="351" y="760" type="curve" smooth="yes"/>
      <point x="454" y="760"/>
      <point x="502" y="706"/>
      <point x="502" y="647" type="curve" smooth="yes"/>
      <point x="502" y="602"/>
      <point x="473" y="577"/>
      <point x="437" y="577" type="curve" smooth="yes"/>
      <point x="404" y="577"/>
      <point x="371" y="599"/>
      <point x="371" y="639" type="curve" smooth="yes"/>
      <point x="371" y="680"/>
      <point x="403" y="703"/>
      <point x="438" y="703" type="curve" smooth="yes"/>
      <point x="470" y="703"/>
      <point x="494" y="682"/>
      <point x="499" y="657" type="curve"/>
      <point x="494" y="711"/>
      <point x="448" y="758"/>
      <point x="351" y="758" type="curve" smooth="yes"/>
      <point x="241" y="758"/>
      <point x="212" y="667"/>
      <point x="212" y="540" type="curve" smooth="yes"/>
      <point x="212" y="0" type="line"/>
      <point x="104" y="0" type="line"/>
    </contour>
    <contour>
      <point x="14" y="2" type="line"/>
      <point x="568" y="2" type="line"/>
      <point x="568" y="0" type="line"/>
      <point x="14" y="0" type="line"/>
    </contour>
    <contour>
      <point x="388" y="458" type="line"/>
      <point x="14" y="458" type="line"/>
      <point x="14" y="460" type="line"/>
      <point x="498" y="460" type="line"/>
      <point x="498" y="0" type="line"/>
      <point x="388" y="0" type="line"/>
    </contour>
  </outline>
</glyph>
<glyph name="uniFB02" format="2">
  <advance width="2534"/>
  <unicode hex="FB02"/>
  <outline>
    <contour>
      <point x="56.5" y="8" type="line"/>
      <point x="2504" y="8" type="line"/>
      <point x="2504" y="0" type="line"/>
      <point x="56.5" y="0" type="line"/>
    </contour>
    <contour>
      <point x="56.5" y="1884" type="line"/>
      <point x="1444" y="1884" type="line"/>
      <point x="1444" y="1876" type="line"/>
      <point x="56.5" y="1876" type="line"/>
    </contour>
    <contour>
      <point x="1725" y="2990" type="line"/>
      <point x="2197" y="3154" type="line"/>
      <point x="2197" y="0" type="line"/>
      <point x="1725" y="0" type="line"/>
    </contour>
    <contour>
      <point x="1880.5" y="2690.5" type="curve"/>
      <point x="1862.5" y="2886.5"/>
      <point x="1693" y="3102"/>
      <point x="1365" y="3102" type="curve" smooth="yes"/>
      <point x="975.5" y="3102"/>
      <point x="885" y="2732"/>
      <point x="885" y="2212" type="curve" smooth="yes"/>
      <point x="885" y="0" type="line"/>
      <point x="425" y="0" type="line"/>
      <point x="425" y="2098" type="line" smooth="yes"/>
      <point x="425" y="2654.5"/>
      <point x="792" y="3112"/>
      <point x="1355" y="3112" type="curve" smooth="yes"/>
      <point x="1697" y="3112"/>
      <point x="1889.5" y="2889.5"/>
      <point x="1889.5" y="2645.5" type="curve" smooth="yes"/>
      <point x="1889.5" y="2457"/>
      <point x="1767.5" y="2350.5"/>
      <point x="1614.5" y="2350.5" type="curve" smooth="yes"/>
      <point x="1481.5" y="2350.5"/>
      <point x="1333.5" y="2429"/>
      <point x="1333.5" y="2613.5" type="curve" smooth="yes"/>
      <point x="1333.5" y="2798"/>
      <point x="1462" y="2887.5"/>
      <point x="1622.5" y="2887.5" type="curve" smooth="yes"/>
      <point x="1800.5" y="2887.5"/>
      <point x="1874.5" y="2690.5"/>
    </contour>
  </outline>
</glyph>
<glyph name="uniFB03" format="2">
  <advance width="3705"/>
  <unicode hex="FB03"/>
  <outline>
    <contour>
      <point x="1661" y="2098" type="line" smooth="yes"/>
      <point x="1661" y="2665"/>
      <point x="2028" y="3112"/>
      <point x="2693.5" y="3112" type="curve" smooth="yes"/>
      <point x="3117.5" y="3112"/>
      <point x="3319" y="2889.5"/>
      <point x="3319" y="2645.5" type="curve" smooth="yes"/>
      <point x="3319" y="2457"/>
      <point x="3198.5" y="2350.5"/>
      <point x="3045.5" y="2350.5" type="curve" smooth="yes"/>
      <point x="2906.5" y="2350.5"/>
      <point x="2764.5" y="2444"/>
      <point x="2764.5" y="2613.5" type="curve" smooth="yes"/>
      <point x="2764.5" y="2786"/>
      <point x="2896.5" y="2885.5"/>
      <point x="3043.5" y="2885.5" type="curve" smooth="yes"/>
      <point x="3193.5" y="2885.5"/>
      <point x="3288" y="2792"/>
      <point x="3305.5" y="2689.5" type="curve"/>
      <point x="3280" y="2913"/>
      <point x="3089" y="3103"/>
      <point x="2693.5" y="3103" type="curve" smooth="yes"/>
      <point x="2243.5" y="3103"/>
      <point x="2121.5" y="2732"/>
      <point x="2121.5" y="2212" type="curve" smooth="yes"/>
      <point x="2121.5" y="0" type="line"/>
      <point x="1661" y="0" type="line"/>
    </contour>
    <contour>
      <point x="89" y="8" type="line"/>
      <point x="3591.5" y="8" type="line"/>
      <point x="3591.5" y="0" type="line"/>
      <point x="89" y="0" type="line"/>
    </contour>
    <contour>
      <point x="457.5" y="1892" type="line" smooth="yes"/>
      <point x="457.5" y="2444.5"/>
      <point x="854.5" y="2908"/>
      <point x="1427.5" y="2908" type="curve" smooth="yes"/>
      <point x="1769.5" y="2908"/>
      <point x="2004" y="2654"/>
      <point x="2004" y="2441.5" type="curve" smooth="yes"/>
      <point x="2004" y="2253"/>
      <point x="1882" y="2146.5"/>
      <point x="1729" y="2146.5" type="curve" smooth="yes"/>
      <point x="1596" y="2146.5"/>
      <point x="1448" y="2237"/>
      <point x="1448" y="2415.5" type="curve" smooth="yes"/>
      <point x="1448" y="2594"/>
      <point x="1575" y="2681.5"/>
      <point x="1722" y="2681.5" type="curve" smooth="yes"/>
      <point x="1851" y="2681.5"/>
      <point x="1955.5" y="2598"/>
      <point x="1979.5" y="2515.5" type="curve"/>
      <point x="1944" y="2688.5"/>
      <point x="1741.5" y="2898"/>
      <point x="1438" y="2898" type="curve" smooth="yes"/>
      <point x="1110" y="2898"/>
      <point x="917.5" y="2528"/>
      <point x="917.5" y="2008" type="curve" smooth="yes"/>
      <point x="917.5" y="0" type="line"/>
      <point x="457.5" y="0" type="line"/>
    </contour>
    <contour>
      <point x="2833.5" y="1876" type="line"/>
      <point x="89" y="1876" type="line"/>
      <point x="89" y="1884" type="line"/>
      <point x="3304" y="1884" type="line"/>
      <point x="3304" y="0" type="line"/>
      <point x="2833.5" y="0" type="line"/>
    </contour>
  </outline>
</glyph>
<glyph name="uniFB04" format="2">
  <advance width="912"/>
  <unicode hex="FB04"/>
  <outline>
    <contour>
      <point x="14" y="2" type="line"/>
      <point x="897" y="2" type="line"/>
      <point x="897" y="0" type="line"/>
      <point x="14" y="0" type="line"/>
    </contour>
    <contour>
      <point x="14" y="460" type="line"/>
      <point x="644" y="460" type="line"/>
      <point x="644" y="458" type="line"/>
      <point x="14" y="458" type="line"/>
    </contour>
    <contour>
      <point x="713" y="730" type="line"/>
      <point x="823" y="770" type="line"/>
      <point x="823" y="0" type="line"/>
      <point x="713" y="0" type="line"/>
    </contour>
    <contour>
      <point x="471" y="613" type="curve"/>
      <point x="463" y="656"/>
      <point x="414" y="708"/>
      <point x="339" y="708" type="curve" smooth="yes"/>
      <point x="259" y="708"/>
      <point x="212" y="617"/>
      <point x="212" y="490" type="curve" smooth="yes"/>
      <point x="212" y="0" type="line"/>
      <point x="104" y="0" type="line"/>
      <point x="104" y="462" type="line" smooth="yes"/>
      <point x="104" y="597"/>
      <point x="199" y="710"/>
      <point x="337" y="710" type="curve" smooth="yes"/>
      <point x="420" y="710"/>
      <point x="476" y="648"/>
      <point x="476" y="597" type="curve" smooth="yes"/>
      <point x="476" y="552"/>
      <point x="447" y="527"/>
      <point x="411" y="527" type="curve" smooth="yes"/>
      <point x="380" y="527"/>
      <point x="345" y="549"/>
      <point x="345" y="591" type="curve" smooth="yes"/>
      <point x="345" y="633"/>
      <point x="375" y="653"/>
      <point x="410" y="653" type="curve" smooth="yes"/>
      <point x="438" y="653"/>
      <point x="465" y="635"/>
    </contour>
    <contour>
      <point x="749" y="659" type="curve"/>
      <point x="743" y="709"/>
      <point x="700" y="758"/>
      <point x="625" y="758" type="curve" smooth="yes"/>
      <point x="529" y="758"/>
      <point x="508" y="667"/>
      <point x="508" y="540" type="curve" smooth="yes"/>
      <point x="508" y="0" type="line"/>
      <point x="400" y="0" type="line"/>
      <point x="400" y="512" type="line" smooth="yes"/>
      <point x="400" y="647"/>
      <point x="487" y="760"/>
      <point x="623" y="760" type="curve" smooth="yes"/>
      <point x="706" y="760"/>
      <point x="752" y="706"/>
      <point x="752" y="647" type="curve" smooth="yes"/>
      <point x="752" y="602"/>
      <point x="723" y="577"/>
      <point x="687" y="577" type="curve" smooth="yes"/>
      <point x="656" y="577"/>
      <point x="621" y="595"/>
      <point x="621" y="639" type="curve" smooth="yes"/>
      <point x="621" y="683"/>
      <point x="652" y="703"/>
      <point x="690" y="703" type="curve" smooth="yes"/>
      <point x="731" y="703"/>
      <point x="747" y="659"/>
    </contour>
  </outline>
</glyph>
<glyph name="J.alt" format="2">
  <advance width="577"/>
  <outline>
    <contour>
      <point x="222" y="750" type="line"/>
      <point x="563" y="750" type="line"/>
      <point x="563" y="748" type="line"/>
      <point x="222" y="748" type="line"/>
    </contour>
    <contour>
      <point x="344" y="750" type="line"/>
      <point x="463" y="750" type="line"/>
      <point x="463" y="258" type="line"/>
      <point x="451" y="106"/>
      <point x="370" y="-14"/>
      <point x="203" y="-14" type="curve" smooth="yes"/>
      <point x="80" y="-14"/>
      <point x="19" y="75"/>
      <point x="19" y="153" type="curve" smooth="yes"/>
      <point x="19" y="221"/>
      <point x="62" y="258"/>
      <point x="108" y="258" type="curve" smooth="yes"/>
      <point x="149" y="258"/>
      <point x="184" y="234"/>
      <point x="184" y="183" type="curve" smooth="yes"/>
      <point x="184" y="142"/>
      <point x="147" y="109"/>
      <point x="105" y="109" type="curve" smooth="yes"/>
      <point x="66" y="109"/>
      <point x="30" y="126"/>
      <point x="23" y="154" type="curve"/>
      <point x="23" y="65"/>
      <point x="94" y="-11"/>
      <point x="199" y="-11" type="curve" smooth="yes"/>
      <point x="314" y="-11"/>
      <point x="344" y="98"/>
      <point x="344" y="238" type="curve" smooth="yes"/>
    </contour>
  </outline>
</glyph>
<glyph name="R.alt" format="2">
  <advance width="5560"/>
  <outline>
    <contour>
      <point x="2856" y="3072" type="curve" smooth="yes"/>
      <point x="1592" y="3072" type="line"/>
      <point x="1592" y="3088" type="line"/>
      <point x="2776" y="3088" type="line" smooth="yes"/>
      <point x="3544" y="3088"/>
      <point x="3960" y="3616"/>
      <point x="3960" y="4520" type="curve" smooth="yes"/>
      <point x="3960" y="5424"/>
      <point x="3544" y="5984"/>
      <point x="2776" y="5984" type="curve" smooth="yes"/>
      <point x="152" y="5984" type="line"/>
      <point x="152" y="6000" type="line"/>
      <point x="2856" y="6000" type="line" smooth="yes"/>
      <point x="4112" y="6000"/>
      <point x="4952" y="5560"/>
      <point x="4952" y="4520" type="curve" smooth="yes"/>
      <point x="4952" y="3480"/>
      <point x="4192" y="3072"/>
    </contour>
    <contour>
      <point x="152" y="16" type="line"/>
      <point x="2800" y="16" type="line"/>
      <point x="2800" y="0" type="line"/>
      <point x="152" y="0" type="line"/>
    </contour>
    <contour>
      <point x="1000" y="6000" type="line"/>
      <point x="1952" y="6000" type="line"/>
      <point x="1952" y="0" type="line"/>
      <point x="1000" y="0" type="line"/>
    </contour>
    <contour>
      <point x="5488" y="0" type="line"/>
      <point x="5360" y="0"/>
      <point x="5088" y="0"/>
      <point x="4800" y="0" type="curve" smooth="yes"/>
      <point x="2840" y="0"/>
      <point x="4656" y="3072"/>
      <point x="2736" y="3072" type="curve" smooth="yes"/>
      <point x="1592" y="3072" type="line"/>
      <point x="1592" y="3088" type="line"/>
      <point x="3088" y="3088" type="line" smooth="yes"/>
      <point x="5816" y="3088"/>
      <point x="4256" y="16"/>
      <point x="5208" y="16" type="curve" smooth="yes"/>
      <point x="5376" y="16"/>
      <point x="5376" y="16"/>
      <point x="5488" y="16" type="curve"/>
    </contour>
  </outline>
</glyph>
<glyph name="fj.lig" format="2">
  <advance width="571"/>
  <outline>
    <contour>
      <point x="14" y="2" type="line"/>
      <point x="306" y="2" type="line"/>
      <point x="306" y="0" type="line"/>
      <point x="14" y="0" type="line"/>
    </contour>
    <contour>
      <point x="490" y="-12" type="line" smooth="yes"/>
      <point x="490" y="-143"/>
      <point x="443" y="-260"/>
      <point x="309" y="-260" type="curve" smooth="yes"/>
      <point x="224" y="-260"/>
      <point x="174" y="-209"/>
      <point x="174" y="-148" type="curve" smooth="yes"/>
      <point x="174" y="-103"/>
      <point x="205" y="-77"/>
      <point x="241" y="-77" type="curve" smooth="yes"/>
      <point x="272" y="-77"/>
      <point x="307" y="-95"/>
      <point x="307" y="-139" type="curve" smooth="yes"/>
      <point x="307" y="-183"/>
      <point x="274" y="-203"/>
      <point x="236" y="-203" type="curve" smooth="yes"/>
      <point x="206" y="-203"/>
      <point x="181" y="-180"/>
      <point x="176" y="-156" type="curve"/>
      <point x="181" y="-213"/>
      <point x="231" y="-257"/>
      <point x="302" y="-257" type="curve" smooth="yes"/>
      <point x="398" y="-257"/>
      <point x="380" y="-107"/>
      <point x="380" y="20" type="curve" smooth="yes"/>
      <point x="380" y="458" type="line"/>
      <point x="14" y="458" type="line"/>
      <point x="14" y="460" type="line"/>
      <point x="490" y="460" type="line"/>
    </contour>
    <contour>
      <point x="488" y="663" type="curve"/>
      <point x="482" y="707"/>
      <point x="444" y="758"/>
      <point x="343" y="758" type="curve" smooth="yes"/>
      <point x="241" y="758"/>
      <point x="212" y="667"/>
      <point x="212" y="540" type="curve" smooth="yes"/>
      <point x="212" y="0" type="line"/>
      <point x="104" y="0" type="line"/>
      <point x="104" y="512" type="line" smooth="yes"/>
      <point x="104" y="649"/>
      <point x="183" y="760"/>
      <point x="343" y="760" type="curve" smooth="yes"/>
      <point x="446" y="760"/>
      <point x="494" y="706"/>
      <point x="494" y="647" type="curve" smooth="yes"/>
      <point x="494" y="602"/>
      <point x="465" y="577"/>
      <point x="429" y="577" type="curve" smooth="yes"/>
      <point x="398" y="577"/>
      <point x="363" y="595"/>
      <point x="363" y="639" type="curve" smooth="yes"/>
      <point x="363" y="683"/>
      <point x="398" y="703"/>
      <point x="430" y="703" type="curve" smooth="yes"/>
      <point x="462" y="703"/>
      <point x="480" y="683"/>
    </contour>
  </outline>
</glyph>
<glyph name="four.alt" format="2">
  <advance width="619"/>
  <outline>
    <contour>
      <point x="554" y="2" type="line"/>
      <point x="554" y="0" type="line"/>
      <point x="265" y="0" type="line"/>
      <point x="265" y="2" type="line"/>
    </contour>
    <contour>
      <point x="479" y="498" type="curve"/>
      <point x="479" y="-1" type="line"/>
      <point x="360" y="-1" type="line"/>
      <point x="360" y="468" type="line"/>
      <point x="396" y="468"/>
      <point x="455" y="484"/>
    </contour>
    <contour>
      <point x="18" y="189" type="curve"/>
      <point x="569" y="189" type="line"/>
      <point x="569" y="187" type="line"/>
      <point x="15" y="187" type="line"/>
      <point x="155" y="387"/>
      <point x="316" y="600"/>
      <point x="336" y="750" type="curve"/>
      <point x="462" y="750" type="line"/>
      <point x="443" y="595"/>
      <point x="159" y="383"/>
    </contour>
  </outline>
</glyph>
